<?xml version="1.0" encoding="UTF-8"?>
<!DOCTYPE svg PUBLIC "-//W3C//DTD SVG 1.1//EN" "http://www.w3.org/Graphics/SVG/1.1/DTD/svg11.dtd">
<!-- Creator: CorelDRAW 2018 (64-Bit) -->
<svg xmlns="http://www.w3.org/2000/svg" xml:space="preserve" width="192px" height="192px" version="1.1" style="shape-rendering:geometricPrecision; text-rendering:geometricPrecision; image-rendering:optimizeQuality; fill-rule:evenodd; clip-rule:evenodd"
viewBox="0 0 192 192"
 xmlns:xlink="http://www.w3.org/1999/xlink">
 <defs>
  <style type="text/css">
   <![CDATA[
    .fil5 {fill:#005CA7}
    .fil4 {fill:#0660D6}
    .fil12 {fill:#8845BA}
    .fil6 {fill:#95DEF3}
    .fil1 {fill:#A454D9}
    .fil11 {fill:#B6EAF4}
    .fil2 {fill:#D5040D}
    .fil8 {fill:#DAF8F6}
    .fil9 {fill:#E44349}
    .fil10 {fill:#EBB505}
    .fil13 {fill:#F7CE2B}
    .fil0 {fill:#FB8B03}
    .fil14 {fill:#FCE351}
    .fil7 {fill:#FDAB3F}
    .fil3 {fill:#FDD303}
   ]]>
  </style>
 </defs>
 <g id="Слой_x0020_1">
  <metadata id="CorelCorpID_0Corel-Layer"/>
  <g id="_2601260042768">
   <path class="fil0" d="M159.03 55.68l-0.01 2.17c5.79,0.53 13.34,-0.21 18.5,0.07 2.89,0.17 6.8,8.95 7.55,10.74 1.75,4.17 1.73,6.25 2.47,10.05 1.33,6.84 0.77,19.15 -0.88,25.73l-0.76 2.48c-0.97,3.36 -4.1,10.13 -6.85,11.79 -0.91,0.61 -45.99,0.24 -56.02,0.27 -1.31,0 -1.1,-0.03 -2.03,-0.29 -0.87,-0.23 -1.67,-0.1 -2.45,-0.35 -0.85,-0.27 -0.13,-0.38 -1.62,-0.72l-8.65 -3.01c-0.05,-0.03 -0.11,-0.08 -0.16,-0.11l-0.8 -0.32c-2.39,-0.74 0.41,-0.07 -2.92,-1.37 -0.57,-0.22 -0.17,0.04 -0.57,-0.26l0 -54.53 36.09 -0.03 1 -0.12 17.45 0.02c0.05,-1.12 0.99,-3.43 0.49,-4.17l0.17 1.96z"/>
   <path class="fil1" d="M23.33 41.17c-1.79,0.19 -4.69,0.55 -5.64,1.48l0.08 59.6c1.09,-0.26 1.32,-0.63 2.2,-0.9 0.86,-0.27 1.79,-0.37 2.71,-0.61 2.02,-0.5 3.67,-0.63 5.56,-0.98 13.33,-2.46 33.36,-1.12 46.8,2.54 5.21,1.42 16.07,4.86 20.23,7.12 0.69,0.38 0.32,0.17 1.21,0.39 2.67,0.66 4.94,2.45 7.1,2.47l-0.05 -54.42 0.3 0.16 0 54.53c0.4,0.3 0,0.04 0.57,0.26 3.33,1.3 0.53,0.63 2.92,1.37l0.8 0.32c0.05,0.03 0.11,0.08 0.16,0.11l8.65 3.01c1.49,0.34 0.77,0.45 1.62,0.72 0.78,0.25 1.58,0.12 2.45,0.35 0.93,0.26 0.72,0.29 2.03,0.29 10.03,-0.03 55.11,0.34 56.02,-0.27l1.09 0.13c0.27,2.86 0.16,19.05 0.1,23.79 -0.03,2.54 -1.09,4.47 -3.7,4.51 0.32,1.17 0.61,6.84 0.13,8.05 0.2,-1.45 0.12,-2.97 0.12,-4.44 0,-2.69 0.15,-2.3 -0.85,-4.07 -0.63,-1.12 -0.33,-2.38 -1.17,-3.74 -0.67,-1.07 -0.37,-0.38 -0.68,-1.69 -0.32,-1.32 -0.04,-0.35 -0.65,-1.33l-0.21 -0.35c-0.83,-1.58 -2.83,-4.23 -4.48,-5.05 -2.15,-1.07 -3.09,-2.53 -4.33,-2.93 -1.54,-0.5 0.07,0.35 -3.18,-0.93 -1.01,-0.39 0.27,0.07 -0.43,-0.14 -0.69,-0.21 -1.22,-0.24 -2.08,-0.41 -1.34,-0.26 -2.67,-0.6 -4.23,-0.64 -6.03,-0.16 -4.13,0.59 -6.35,1.05 -2.99,0.61 -2.72,0.92 -5.51,2.2 -0.06,0.03 -0.13,0.06 -0.19,0.09l-3.69 2.75c-0.05,0.04 -1.04,1.39 -1.04,1.41 -1.62,2.34 -1.58,1.37 -1.76,3.06l-0.77 0.06c-0.57,0.3 -0.64,0.78 -1.07,1.24 -1.55,-0.17 -1.92,-0.22 -3.73,-0.12 -2.77,0.16 -0.94,-0.63 -2.72,-1.03 -1.55,-0.32 -0.18,0.07 -1.01,-0.91 -1.06,-1.26 -0.16,0.36 -1.17,-1.49 -0.31,-0.54 -0.12,-0.29 -0.49,-0.65l-1.22 -1.46c-0.23,-0.32 -0.24,-0.33 -0.51,-0.59 -0.59,-0.59 -0.36,-0.36 -1.15,-0.76 -0.8,-0.4 -0.47,-0.2 -0.99,-0.85 -1.01,-1.27 -2.99,-1.76 -3.69,-2.04 -0.74,-0.3 -0.42,-0.38 -0.9,-0.68l-0.78 -0.3c-0.07,-0.03 -0.15,-0.04 -0.22,-0.07 -3.33,-1.22 -2.9,-1.07 -7.39,-1.03 -2.97,0.02 -4.44,-0.06 -6.59,0.99 -1.5,0.74 -1.95,0.63 -3.94,1.76 -2.89,1.64 -1.65,1.53 -3.3,2.6l-1.8 1.2c-0.05,0.04 -0.12,0.08 -0.17,0.12 -0.05,0.03 -0.11,0.09 -0.16,0.13 -0.21,0.19 -0.19,0.24 -0.37,0.44 -1.05,1.2 -0.53,0.22 -1.25,1.78 -0.26,0.57 0.08,-0.12 -0.27,0.55 -0.02,0.03 -0.35,0.63 -0.38,0.68 -0.52,0.71 0.03,0.34 -1.23,0.75 -0.7,-0.54 -5.82,-0.61 -6.82,-0.61 -1.77,0.01 -4.06,-0.53 -5.19,-0.4 -1.34,0.15 -0.98,-0.05 -0.98,0.76l-0.5 -1.01c-0.27,0.2 -0.78,-0.27 -0.43,1.12l-0.19 -1.35 -1.15 -0.05c-1.33,-1.82 -0.48,-1.63 -1.08,-3.74 -0.32,-1.12 -0.36,-0.25 -0.98,-1.42l-1.12 -2.72c-0.53,-1.1 0,-0.58 -0.85,-1.57 -1.63,-1.87 -1.82,-2.74 -2.52,-3.44l-0.66 -0.73c-0.32,-0.41 -0.43,-0.79 -1.04,-1.06 -1.12,-0.49 -0.74,0.15 -1.89,-0.84l-7.35 -4.54c-0.06,-0.02 -0.13,-0.06 -0.19,-0.08 -0.4,-0.16 -0.48,-0.1 -0.9,-0.23 -0.98,-0.3 -0.95,-0.6 -1.57,-0.8l-6.35 -0.92c-1.32,0.03 -3.64,-0.14 -4.79,0.06 -0.67,0.11 -1.08,0.34 -1.99,0.49 -4.16,0.65 -1.64,0.08 -3.93,1.08l-2.27 0.8c-0.08,0.03 -0.29,0.13 -0.37,0.16l-2.29 1.21c-0.31,0.18 -0.62,0.29 -0.87,0.48l-2.26 1.77c-0.05,0.04 -0.11,0.1 -0.15,0.14 -0.04,0.04 -0.1,0.09 -0.14,0.13 -2.1,2.12 -1.33,0.39 -2.09,1.57 -1.57,0.23 -2.19,0.74 -1.74,2.47 -1.54,-0.1 -1.68,0.1 -2.3,1.22 -0.05,-0.07 -0.38,-0.74 -0.39,-0.76l-4.13 -2.9c-0.06,-0.06 -0.22,-0.23 -0.27,-0.29l-1.74 -2.06c-1.51,-1.89 -0.78,-6.37 -0.75,-9.47 0.02,-1.31 -0.07,-2.52 -0.11,-3.8 -0.03,-1.4 0.47,-2.32 0.26,-3.65 0.3,-1.42 1.64,-2.21 2.9,-2.74l0 -57c0,-0.62 0.03,-1.32 0.01,-1.92 0,-0.13 -0.03,-0.67 -0.05,-0.78 -0.02,-0.08 -0.03,-0.15 -0.05,-0.23 -0.02,-0.07 -0.06,-0.14 -0.08,-0.2 -0.02,-0.06 -0.08,-0.15 -0.1,-0.2 -0.01,-0.04 -0.06,-0.12 -0.1,-0.18 1.27,-0.97 7.16,-1.65 8.62,-1.72 -0.45,0.67 -1.62,0.65 -2.43,0.77z"/>
   <path class="fil0" d="M73.43 138.81c0.07,1.61 0.23,1.04 0.43,1.78 0.17,0.62 0.15,1.36 0.17,2.02 0.04,1.51 0.06,2.95 0.06,4.45 -0.03,1.52 -0.37,4.79 -0.85,5.92l-0.88 2.59c-0.34,0.85 -0.66,1.65 -1.04,2.48 -2.53,5.67 -8.4,11.29 -14.11,13.59 -1.07,0.43 -1.23,0.73 -2.43,1.05 -3.98,1.07 -4.67,1.41 -9.21,1.41 -8.74,0.01 -15.13,-3.45 -19.81,-7.88 -4.42,-4.18 -8.66,-11.01 -8.7,-19.16 0.02,-1.64 -0.1,-4.55 0.15,-6.07 0.15,-0.94 0.89,-1.19 1.04,-4.87 1.6,-1.16 -0.08,0.62 1.8,-2.72 0.42,-0.73 0.27,-1.05 0.82,-1.89l0.95 -1.27c0.38,-0.48 0.5,-0.68 0.86,-1.23 0.81,-1.25 0.59,-0.54 1.16,-1.3 0.34,-0.45 0.43,-1.12 0.82,-1.64 1.05,-1.37 0.75,0.3 1.12,-1.46 0.76,-1.18 -0.01,0.55 2.09,-1.57 0.04,-0.04 0.1,-0.09 0.14,-0.13 0.04,-0.04 0.1,-0.1 0.15,-0.14l2.26 -1.77c0.25,-0.19 0.56,-0.3 0.87,-0.48l2.29 -1.21c0.08,-0.03 0.29,-0.13 0.37,-0.16l2.27 -0.8c2.29,-1 -0.23,-0.43 3.93,-1.08 0.91,-0.15 1.32,-0.38 1.99,-0.49 1.15,-0.2 3.47,-0.03 4.79,-0.06l6.35 0.92c0.62,0.2 0.59,0.5 1.57,0.8 0.42,0.13 0.5,0.07 0.9,0.23 0.06,0.02 0.13,0.06 0.19,0.08l7.35 4.54c1.15,0.99 0.77,0.35 1.89,0.84 0.61,0.27 0.72,0.65 1.04,1.06l0.66 0.73c0.7,0.7 0.89,1.57 2.52,3.44 0.85,0.99 0.32,0.47 0.85,1.57l1.12 2.72c0.62,1.17 0.66,0.3 0.98,1.42 0.6,2.11 -0.25,1.92 1.08,3.74z"/>
   <path class="fil2" d="M103.76 42.04l-2.15 -0.5c-0.83,-0.39 -3,-0.83 -4.09,-0.95 -2.86,-0.31 -6.04,-1.13 -8.91,-1.35 -1.87,-0.14 -2.93,-0.41 -4.6,-0.55 -6.53,-0.53 -12.96,-0.99 -19.75,-1.09 -6.74,-0.09 -31.93,0.61 -38.5,2.8 -1.46,0.07 -7.35,0.75 -8.62,1.72 -4.15,0.72 -6.32,1.03 -9.38,-1.49 -1.99,-1.64 -3.57,-4.56 -3.96,-8 -0.92,-8.21 5.8,-10.07 12.34,-11.59 19.18,-4.48 69.75,-4.16 89.14,0.05 6.29,1.37 13.3,3.76 12.06,11.74 -0.53,3.44 -1.89,6.18 -4.06,7.91 -3.06,2.43 -5.34,2.1 -9.52,1.3z"/>
   <path class="fil3" d="M70.92 145.33c0,4.12 -0.77,6.97 -2.18,10.44 -1.38,3.4 -2.22,4.54 -4.94,7.25 -3.1,3.08 -3.46,3.25 -7.1,5.05l-4.57 1.72c-4.73,1.71 -13.72,0.61 -17.72,-1.68 -4.75,-2.72 -6.55,-4.34 -9.73,-8.42 -0.76,-0.98 -1.46,-2.89 -2.09,-4.1 -2.87,-5.51 -2.61,-14.42 -0.13,-20.36 1.26,-3.01 2.82,-4.9 4.94,-7.25 1.9,-2.11 4.33,-4.05 7.03,-5.19 5.23,-2.2 6.85,-2.59 12.22,-2.59 1.08,0 4.23,0.44 5.14,0.74l4.37 1.58c0.06,0.02 0.13,0.05 0.19,0.08 2.81,1.13 5.34,3.23 7.29,5.2 3.94,3.98 7.28,9.86 7.28,17.53z"/>
   <path class="fil4" d="M101.61 41.54c0.31,1.19 0.6,0.12 1.4,0.84 0.09,3.89 0.47,12.01 -0.23,15.54 -0.68,3.38 0.51,37.82 -0.36,40.87l-7 -0.9 -0.55 -1.07 -3.79 -0.1 -0.45 -0.99c-1.04,0.03 -2.52,-0.05 -3.34,-0.23 -1.79,-0.39 -0.22,-0.1 -1.1,-0.54 -1.06,-0.55 -2.34,-0.04 -3.8,-0.58 -2.65,-0.98 1.4,0.19 -0.81,-0.32 -0.71,-0.16 -2.66,-0.07 -3.5,-0.07l-0.54 -1.59 -3.8 -0.06c-0.05,-0.06 -0.19,-0.4 -0.23,-0.45 -0.5,-0.62 -0.5,-0.38 -1.54,-0.88 -0.79,-0.38 -0.51,-0.39 -1.04,-0.55 -0.55,-0.16 -1.17,-0.12 -1.79,-0.21l-3.71 -1.15c-1.22,-0.57 0.23,0.36 -0.43,-0.3l-0.35 -0.49c-0.03,-0.04 -0.07,-0.14 -0.12,-0.19l-3.97 -0.77 -0.14 -1.08c3.13,-0.46 11.82,-0.02 16.3,-0.12l4.09 0.04c1.96,-0.12 0.9,0.19 1.36,-0.64l-0.04 -0.37c1.18,0.12 2.32,-1.25 2.64,-2.57 0.28,-1.17 0.38,-30.66 0.14,-33.48 -0.17,-2 -1.18,-2.52 -2.12,-3.67 0.84,-0.15 0.25,0.08 0.44,-0.38 -1.7,-0.82 -34.28,-0.43 -39.02,-0.38 -1.56,0.02 -5.75,-0.25 -6.87,0.54 -0.12,0.09 -0.96,1.11 -1.09,1.34 -1.38,2.37 -0.45,6 -0.43,8.8l0 14.63c0.02,1.81 -0.26,3.24 -0.28,4.95l-0.09 -1.87c-2.48,0.11 -3.4,-0.96 -5.25,-2.64l-0.69 -0.63c-0.48,-0.32 -0.59,-0.16 -1.15,-0.74 -1.1,-1.13 0.55,-0.17 -1.99,-1.79l-1.08 -0.91c-0.42,-0.36 -0.65,-0.56 -0.98,-0.88l-3.28 -3.74c-1.01,-1.34 -0.29,-1.18 -2.24,-1.54 -0.09,-1.63 -0.67,-2.36 -0.67,-4.01 0,-1.56 -0.38,-15.46 0.67,-13.94 0.06,0.07 0.18,-0.07 0.26,-0.09 1.47,-0.41 2.81,-0.23 3.85,-0.73 0.07,-0.03 0.16,-0.1 0.21,-0.13 0.06,-0.03 0.15,-0.09 0.22,-0.15 0.81,-0.12 1.98,-0.1 2.43,-0.77 6.57,-2.19 31.76,-2.89 38.5,-2.8 6.79,0.1 13.22,0.56 19.75,1.09 1.67,0.14 2.73,0.41 4.6,0.55 2.87,0.22 6.05,1.04 8.91,1.35 1.09,0.12 3.26,0.56 4.09,0.95z"/>
   <path class="fil0" d="M127.67 140.18c0.29,1.22 1.84,3.74 2.11,5.18 0.21,1.12 -0.13,1.27 0.78,1.75l0.11 5.54c-0.04,2.08 -0.49,3.54 -0.88,5.4l-1.2 3.4c-2.18,3.99 -5.74,8.32 -10.08,10.25 -4.97,2.21 -9.83,3.31 -15.74,1.81 -1.73,-0.44 -2.94,-1.03 -4.55,-1.72 -3.71,-1.57 -7.56,-5.56 -9.57,-9.11 -2.63,-4.65 -3.47,-10.31 -2.21,-15.53 0.33,-2.39 0.06,-2.15 0.91,-3.99 0.5,-1.09 0.83,-1.82 1.34,-2.81 1.26,-0.41 0.71,-0.04 1.23,-0.75 0.03,-0.05 0.36,-0.65 0.38,-0.68 0.35,-0.67 0.01,0.02 0.27,-0.55 0.72,-1.56 0.2,-0.58 1.25,-1.78 0.18,-0.2 0.16,-0.25 0.37,-0.44 0.05,-0.04 0.11,-0.1 0.16,-0.13 0.05,-0.04 0.12,-0.08 0.17,-0.12l1.8 -1.2c1.65,-1.07 0.41,-0.96 3.3,-2.6 1.99,-1.13 2.44,-1.02 3.94,-1.76 2.15,-1.05 3.62,-0.97 6.59,-0.99 4.49,-0.04 4.06,-0.19 7.39,1.03 0.07,0.03 0.15,0.04 0.22,0.07l0.78 0.3c0.48,0.3 0.16,0.38 0.9,0.68 0.7,0.28 2.68,0.77 3.69,2.04 0.52,0.65 0.19,0.45 0.99,0.85 0.79,0.4 0.56,0.17 1.15,0.76 0.27,0.26 0.28,0.27 0.51,0.59l1.22 1.46c0.37,0.36 0.18,0.11 0.49,0.65 1.01,1.85 0.11,0.23 1.17,1.49 0.83,0.98 -0.54,0.59 1.01,0.91z"/>
   <path class="fil0" d="M176.67 155.19c-0.94,8.77 -7.57,15.38 -15.98,18.06 -2.84,0.91 -6.95,1.19 -10.29,0.56 -5.94,-1.13 -10.92,-4.61 -13.87,-8.65 -1.83,-2.52 -2.7,-4.36 -3.72,-7.63 -1.17,-3.75 -0.31,-6.89 -0.36,-10.5 1.1,-1.22 0.32,-0.83 1.05,-2.34l1.69 -4.6 0.77 -0.06c0.18,-1.69 0.14,-0.72 1.76,-3.06 0,-0.02 0.99,-1.37 1.04,-1.41l3.69 -2.75c0.06,-0.03 0.13,-0.06 0.19,-0.09 2.79,-1.28 2.52,-1.59 5.51,-2.2 2.22,-0.46 0.32,-1.21 6.35,-1.05 1.56,0.04 2.89,0.38 4.23,0.64 0.86,0.17 1.39,0.2 2.08,0.41 0.7,0.21 -0.58,-0.25 0.43,0.14 3.25,1.28 1.64,0.43 3.18,0.93 1.24,0.4 2.18,1.86 4.33,2.93 1.65,0.82 3.65,3.47 4.48,5.05l0.21 0.35c0.61,0.98 0.33,0.01 0.65,1.33 0.31,1.31 0.01,0.62 0.68,1.69 0.84,1.36 0.54,2.62 1.17,3.74 1,1.77 0.85,1.38 0.85,4.07 0,1.47 0.08,2.99 -0.12,4.44z"/>
   <path class="fil5" d="M82.79 45.46c-7.18,-0.66 -15.92,-0.28 -23.68,-0.28 -4.06,0 -8.13,-0.01 -12.19,0 -3.09,0 -9.06,-0.82 -9.84,1.87 -0.5,0.35 -0.12,-0.42 -0.68,0.81 -0.33,0.73 -0.23,2.94 -0.23,3.73l0.03 26.82c0.01,2.09 -0.57,6.41 3.26,7.12l21.28 0.14c6.75,0.03 14.83,0.37 21.43,-0.12 -0.46,0.83 0.6,0.52 -1.36,0.64l-4.09 -0.04c-4.48,0.1 -13.17,-0.34 -16.3,0.12l0.14 1.08 3.97 0.77c0.05,0.05 0.09,0.15 0.12,0.19l0.35 0.49c0.66,0.66 -0.79,-0.27 0.43,0.3l3.71 1.15c0.62,0.09 1.24,0.05 1.79,0.21 0.53,0.16 0.25,0.17 1.04,0.55 1.04,0.5 1.04,0.26 1.54,0.88 0.04,0.05 0.18,0.39 0.23,0.45l3.8 0.06 0.54 1.59c0.84,0 2.79,-0.09 3.5,0.07 2.21,0.51 -1.84,-0.66 0.81,0.32 1.46,0.54 2.74,0.03 3.8,0.58 0.88,0.44 -0.69,0.15 1.1,0.54 0.82,0.18 2.3,0.26 3.34,0.23l0.45 0.99 3.79 0.1 0.55 1.07 7 0.9c0.87,-3.05 -0.32,-37.49 0.36,-40.87 0.7,-3.53 0.32,-11.65 0.23,-15.54 -0.8,-0.72 -1.09,0.35 -1.4,-0.84l2.15 0.5 -0.23 15.82 0.05 54.42c-2.16,-0.02 -4.43,-1.81 -7.1,-2.47 -0.89,-0.22 -0.52,-0.01 -1.21,-0.39 -4.16,-2.26 -15.02,-5.7 -20.23,-7.12 -13.44,-3.66 -33.47,-5 -46.8,-2.54 -1.89,0.35 -3.54,0.48 -5.56,0.98 -0.92,0.24 -1.85,0.34 -2.71,0.61 -0.88,0.27 -1.11,0.64 -2.2,0.9l-0.08 -59.6c0.95,-0.93 3.85,-1.29 5.64,-1.48 -0.07,0.06 -0.16,0.12 -0.22,0.15 -0.05,0.03 -0.14,0.1 -0.21,0.13 -1.04,0.5 -2.38,0.32 -3.85,0.73 -0.08,0.02 -0.2,0.16 -0.26,0.09 -1.05,-1.52 -0.67,12.38 -0.67,13.94 0,1.65 0.58,2.38 0.67,4.01 1.95,0.36 1.23,0.2 2.24,1.54l3.28 3.74c0.33,0.32 0.56,0.52 0.98,0.88l1.08 0.91c2.54,1.62 0.89,0.66 1.99,1.79 0.56,0.58 0.67,0.42 1.15,0.74l0.69 0.63c1.85,1.68 2.77,2.75 5.25,2.64l0.09 1.87c0.02,-1.71 0.3,-3.14 0.28,-4.95l0 -14.63c-0.02,-2.8 -0.95,-6.43 0.43,-8.8 0.13,-0.23 0.97,-1.25 1.09,-1.34 1.12,-0.79 5.31,-0.52 6.87,-0.54 4.74,-0.05 37.32,-0.44 39.02,0.38 -0.19,0.46 0.4,0.23 -0.44,0.38z"/>
   <path class="fil3" d="M110.42 132.16c7.78,1.25 5.78,1.64 9.75,3.62 0.85,0.42 0.38,0.05 0.84,0.51 2.6,2.56 4.23,5.07 5.93,8.64 2.41,5.08 1,14.61 -3.28,19.43 -2.27,2.55 -5.17,4.57 -8.7,5.94 -9.58,3.72 -21.83,-1.68 -25.18,-12.01 -2,-6.19 -1.24,-12.43 2.18,-18.06l3.45 -3.6c2.94,-2.77 9.4,-5.37 15.01,-4.47z"/>
   <path class="fil3" d="M155.02 171.41c-1.7,0 -3.19,-0.04 -4.74,-0.43 -3.19,-0.83 -7.32,-2.89 -9.52,-5.14 -3.56,-3.63 -5.81,-8.61 -5.81,-14.01 0,-4.08 1.08,-8.43 3.24,-11.4 0.04,-0.05 0.09,-0.11 0.12,-0.16 1.25,-1.66 2.89,-3.47 4.58,-4.62 0.06,-0.04 0.12,-0.08 0.18,-0.12 1.06,-0.69 1.99,-1.21 3.13,-1.73 0.83,-0.38 0.94,-0.49 1.71,-0.76 7.1,-2.48 16.02,-0.42 20.69,4.66 0.88,0.97 1.21,1.61 2.21,2.69 3.47,3.73 4.09,10.77 2.87,15.36 -0.75,2.86 -0.36,3.67 -2.78,7.1l-1.95 2.61c-1.46,1.92 -3.91,3.05 -6.06,4.01 -2.02,0.91 -5.44,1.94 -7.87,1.94z"/>
   <path class="fil6" d="M77.54 82.22c-3.38,-0.56 -12.97,-0.07 -17.07,-0.07 -2.61,0 -6.24,-0.24 -8.67,-0.02 -3.24,0.29 -5.85,0.45 -8.88,0.14 -3.45,-0.35 -3.54,-2.22 -3.1,-5.76 0.55,-4.43 -0.58,-24.53 0.33,-26.55l0 -0.77c0,2.94 -0.06,2.13 1.57,1.89 3.95,-0.57 21.02,-0.31 26.06,-0.31 3.62,0 6.28,0.27 9.76,0.27l0.74 1.36c0.79,1.38 0.4,-0.6 0.61,0.81l0 22.76c0,1.11 0.1,2.79 -0.03,3.83 -0.14,1.16 -0.44,1.67 -0.88,2.11 -0.03,0.03 -0.12,0.09 -0.14,0.11l-0.3 0.2z"/>
   <path class="fil7" d="M181.72 88.03c-2.31,0.36 -1.54,0.72 -3.01,1.08l-9.04 -1.01c-1.24,-0.2 -0.3,-0.06 -1.49,-0.63 -1.33,-0.63 -3.09,-0.26 -5.55,-1.47 -2.23,-1.11 -1.5,-0.59 -2.95,-1.11l-3.94 -1.77c-3.59,-1.78 -0.98,-0.92 -3.41,-2.24 -1.12,-0.61 -0.7,-0.71 -1.16,-1.06 -0.45,-0.34 -0.7,-0.17 -1.37,-0.53l-6.05 -6.68c-0.78,-0.74 -0.49,-0.13 -1.06,-1.09 -0.41,-0.7 0.2,-0.21 0.05,-3.13 -0.28,-5.31 -0.13,-5.72 5.51,-5.72 3.16,0 25.83,-0.44 28.04,0.43 0.12,0.05 0.65,0.31 0.73,0.36 0.4,0.26 0.27,0.16 0.6,0.5l4.01 7.32c0.11,0.26 1.14,12.18 0.86,13.9 -0.21,1.32 0.2,-0.61 -0.11,0.47 -0.3,1 -0.45,0.7 -0.66,2.38z"/>
   <path class="fil3" d="M155.69 36.35c0.2,1.26 -0.03,1.1 0.55,2.12 1.15,2.01 1.43,4.09 3.77,4.08l0.29 -1.83c1.61,-0.69 0.38,-0.16 0.86,0.03 -0.16,1.33 -0.27,3.1 -0.53,4.34 -0.31,1.52 -0.94,2.33 -0.56,4.12 0.51,2.09 -0.37,3.85 -0.61,4.89 -0.06,0.27 -0.07,0.47 -0.12,0.71 -0.03,0.08 -0.04,0.16 -0.06,0.23l-0.25 0.64 -0.17 -1.96c0.5,0.74 -0.44,3.05 -0.49,4.17l-17.45 -0.02 -1.07 -10.31c-0.62,-3.87 -0.07,-2.11 -0.18,-3.52 -0.09,-1.19 -0.81,-1.05 -0.97,-2.52 -0.13,-1.24 -0.25,-2.41 -0.48,-3.62 -0.5,-2.6 -0.17,-5.46 -0.56,-7.38l24.9 0c0.7,3.07 -0.17,0.83 -0.49,5.25 -0.09,1.34 -0.53,1.47 -0.61,1.56 -0.06,-1.58 -0.51,-0.8 0.03,-2.37 0.37,-1.07 0.85,-0.97 0.16,-2.07 -0.73,-0.68 -5.5,-0.52 -6.49,-0.44l0.02 3.15c0.24,0.75 -0.27,0.34 0.51,0.75z"/>
   <path class="fil8" d="M82.79 45.46c0.94,1.15 1.95,1.67 2.12,3.67 0.24,2.82 0.14,32.31 -0.14,33.48 -0.32,1.32 -1.46,2.69 -2.64,2.57l-23.57 0.01c-2.41,0.01 -4.09,-0.53 -6.76,-0.55l0.96 -0.54c-0.92,-0.64 -0.81,0.06 -1.09,-1.36l3.65 -0.26c4.65,0.01 23.05,0.51 24.78,-0.45 1.12,-1.29 1.42,-0.83 1.44,-3.34l-0.02 -24.12c0.01,-3.57 0.68,-5.77 -3.43,-6.08 -5.86,-0.46 -21.18,-0.06 -28.73,-0.06 -4.33,0 -5.75,-0.4 -9.21,0.76l0 0.77c-0.53,0.45 -0.28,0.07 -0.57,0.75 -0.29,0.69 -0.09,24.84 -0.09,25.72 -0.51,-0.21 -1.29,-0.35 -1.87,-0.63 -0.71,-0.33 -0.16,-0.03 -0.65,-0.44 -0.31,-0.26 -0.26,-0.26 -0.5,-0.47l0 -25.47c0.45,-0.43 -0.31,-0.24 0.76,-0.54 0.03,-2.2 -0.94,0.77 -0.15,-1.83 0.78,-2.69 6.75,-1.87 9.84,-1.87 4.06,-0.01 8.13,0 12.19,0 7.76,0 16.5,-0.38 23.68,0.28z"/>
   <path class="fil0" d="M34.98 145.87c0,-4.28 2.35,-8.47 6.1,-9.9 1.45,-0.55 2.9,-0.97 4.48,-0.96 5.93,0.05 10.37,4.57 10.53,10.32 0.16,5.96 -4.64,10.6 -10.25,10.74 -5.9,0.15 -10.86,-4.59 -10.86,-10.2z"/>
   <path class="fil6" d="M80.1 82.03l-2.56 0.19 0.3 -0.2c0.02,-0.02 0.11,-0.08 0.14,-0.11 0.44,-0.44 0.74,-0.95 0.88,-2.11 0.13,-1.04 0.03,-2.72 0.03,-3.83l0 -22.76c-0.21,-1.41 0.18,0.57 -0.61,-0.81l-0.74 -1.36c-3.48,0 -6.14,-0.27 -9.76,-0.27 -5.04,0 -22.11,-0.26 -26.06,0.31 -1.63,0.24 -1.57,1.05 -1.57,-1.89 3.46,-1.16 4.88,-0.76 9.21,-0.76 7.55,0 22.87,-0.4 28.73,0.06 4.11,0.31 3.44,2.51 3.43,6.08l0.02 24.12c-0.02,2.51 -0.32,2.05 -1.44,3.34z"/>
   <path class="fil9" d="M78.56 20.7c2.15,-1.3 19.37,1.02 21.67,1.47 3.64,0.72 13.67,2.55 13.45,7.46 -0.05,1.29 -0.34,1.77 -0.76,2.34 -1.49,2.06 -3.62,-0.05 -7.94,-1.8 -2.98,-1.21 -6.14,-2.07 -8.86,-3.06l-15.86 -5.02c-1.09,-0.27 -1.55,-0.19 -1.7,-1.39z"/>
   <path class="fil0" d="M156.76 144.64c1.27,0.28 1.55,0.71 2.29,1.26 1.22,0.9 0.92,0.69 1.77,2.04 3.36,5.29 -1.47,13.12 -8.58,10.97 -8.71,-2.63 -5.93,-16.57 4.52,-14.27z"/>
   <path class="fil0" d="M100.81 152.65c0,-3.49 0.76,-5.24 3.3,-7.02 1.49,-1.03 1.14,-1.12 3.77,-1.2 9.88,-0.3 10.17,13.97 1.04,14.77 -4.49,0.4 -8.11,-3.59 -8.11,-6.55z"/>
   <path class="fil10" d="M162.56 30.52l-24.9 0c-1.71,-0.38 -0.57,-0.93 -3.23,-0.88 -0.05,-0.08 -0.11,-0.3 -0.14,-0.25 -0.02,0.04 -0.09,-0.19 -0.13,-0.25 -0.03,-0.06 -0.08,-0.16 -0.12,-0.23 -0.1,-0.2 -0.24,-0.46 -0.3,-0.58l-0.64 -1.4c1.16,-2.05 3.1,-1.39 5.94,-1.42l14.09 0.04c0.53,0.04 1.08,0.15 1.62,0.12l1.42 -0.34c1.15,-0.29 2.75,-0.14 4.03,-0.14l-4.52 0.56c-0.07,2.19 0.34,0.99 5.09,2.21 0.8,0.21 2.37,0.41 3.17,0.3 1.25,-0.17 1.1,-0.63 1.55,-1.15 0.48,-0.56 -0.03,-0.33 0.58,-0.45 2.07,1.83 -1.69,2.94 -2.03,3.1 -0.29,0.15 -0.31,0.45 -1.48,0.76z"/>
   <path class="fil11" d="M40.15 49.96c-0.91,2.02 0.22,22.12 -0.33,26.55 -0.44,3.54 -0.35,5.41 3.1,5.76 3.03,0.31 5.64,0.15 8.88,-0.14 2.43,-0.22 6.06,0.02 8.67,0.02 4.1,0 13.69,-0.49 17.07,0.07l2.56 -0.19c-1.73,0.96 -20.13,0.46 -24.78,0.45l-3.65 0.26c0.28,1.42 0.17,0.72 1.09,1.36l-0.96 0.54c2.67,0.02 4.35,0.56 6.76,0.55l23.57 -0.01 0.04 0.37c-6.6,0.49 -14.68,0.15 -21.43,0.12l-21.28 -0.14c-3.83,-0.71 -3.25,-5.03 -3.26,-7.12l-0.03 -26.82c0,-0.79 -0.1,-3 0.23,-3.73 0.56,-1.23 0.18,-0.46 0.68,-0.81 -0.79,2.6 0.18,-0.37 0.15,1.83 -1.07,0.3 -0.31,0.11 -0.76,0.54l0 25.47c0.24,0.21 0.19,0.21 0.5,0.47 0.49,0.41 -0.06,0.11 0.65,0.44 0.58,0.28 1.36,0.42 1.87,0.63 0,-0.88 -0.2,-25.03 0.09,-25.72 0.29,-0.68 0.04,-0.3 0.57,-0.75z"/>
   <path class="fil12" d="M25.78 124.61c-0.37,1.76 -0.07,0.09 -1.12,1.46 -0.39,0.52 -0.48,1.19 -0.82,1.64 -0.57,0.76 -0.35,0.05 -1.16,1.3 -0.36,0.55 -0.48,0.75 -0.86,1.23l-0.95 1.27c-0.55,0.84 -0.4,1.16 -0.82,1.89 -1.88,3.34 -0.2,1.56 -1.8,2.72 -0.15,3.68 -0.89,3.93 -1.04,4.87 -0.25,1.52 -0.13,4.43 -0.15,6.07 -4.01,-0.14 -2.98,-4.57 -2.97,-8.23l0.02 -22.49c0,-2.97 -0.6,-8.75 0.5,-10.97 0.21,1.33 -0.29,2.25 -0.26,3.65 0.04,1.28 0.13,2.49 0.11,3.8 -0.03,3.1 -0.76,7.58 0.75,9.47l1.74 2.06c0.05,0.06 0.21,0.23 0.27,0.29l4.13 2.9c0.01,0.02 0.34,0.69 0.39,0.76 0.62,-1.12 0.76,-1.32 2.3,-1.22 -0.45,-1.73 0.17,-2.24 1.74,-2.47z"/>
   <path class="fil12" d="M88.69 140.35c-0.51,0.99 -0.84,1.72 -1.34,2.81 -0.85,1.84 -0.58,1.6 -0.91,3.99l-12.35 -0.09c0,-1.5 -0.02,-2.94 -0.06,-4.45 -0.02,-0.66 0,-1.4 -0.17,-2.02 -0.2,-0.74 -0.36,-0.17 -0.43,-1.78l1.15 0.05 0.19 1.35c-0.35,-1.39 0.16,-0.92 0.43,-1.12l0.5 1.01c0,-0.81 -0.36,-0.61 0.98,-0.76 1.13,-0.13 3.42,0.41 5.19,0.4 1,0 6.12,0.07 6.82,0.61z"/>
   <path class="fil13" d="M160.07 49.21c-0.38,-1.79 0.25,-2.6 0.56,-4.12 0.26,-1.24 0.37,-3.01 0.53,-4.34 -0.48,-0.19 0.75,-0.72 -0.86,-0.03 0.02,-1.28 0.61,-1.66 0.71,-3.23 0.07,-1.25 0.08,-2.21 0.19,-3.51l-1.59 -1.17c-0.23,-0.06 -0.52,-0.07 -0.77,-0.08 -0.93,-0.06 -2.11,-0.01 -3.12,-0.01l-0.03 3.63c-0.78,-0.41 -0.27,0 -0.51,-0.75l-0.02 -3.15c0.99,-0.08 5.76,-0.24 6.49,0.44 0.69,1.1 0.21,1 -0.16,2.07 -0.54,1.57 -0.09,0.79 -0.03,2.37 0.08,-0.09 0.52,-0.22 0.61,-1.56 0.32,-4.42 1.19,-2.18 0.49,-5.25 1.17,-0.31 1.19,-0.61 1.48,-0.76 0.34,-0.16 4.1,-1.27 2.03,-3.1 -0.61,0.12 -0.1,-0.11 -0.58,0.45 -0.45,0.52 -0.3,0.98 -1.55,1.15 -0.8,0.11 -2.37,-0.09 -3.17,-0.3 -4.75,-1.22 -5.16,-0.02 -5.09,-2.21l4.52 -0.56c-1.28,0 -2.88,-0.15 -4.03,0.14l-1.42 0.34c-0.54,0.03 -1.09,-0.08 -1.62,-0.12l-14.09 -0.04c-2.84,0.03 -4.78,-0.63 -5.94,1.42l0.64 1.4c0.06,0.12 0.2,0.38 0.3,0.58 0.04,0.07 0.09,0.17 0.12,0.23 0.04,0.06 0.11,0.29 0.13,0.25 0.03,-0.05 0.09,0.17 0.14,0.25 2.66,-0.05 1.52,0.5 3.23,0.88 0.39,1.92 0.06,4.78 0.56,7.38 0.23,1.21 0.35,2.38 0.48,3.62 0.16,1.47 0.88,1.33 0.97,2.52 0.11,1.41 -0.44,-0.35 0.18,3.52l1.07 10.31 -1 0.12c0.26,-1.36 -0.39,-5.41 -0.68,-6.87 -0.47,-2.32 -0.54,-4.55 -0.84,-7.1 -0.26,-2.16 -0.7,-4.46 -0.98,-6.79 -0.22,-1.89 -0.36,-5.23 -1.01,-6.82 -2.07,-0.19 -3.64,-0.33 -3.72,-2.66 -0.09,-2.48 1.55,-2.83 3.9,-2.82l26.02 0c2.28,-0.02 4.18,-0.05 4.45,2.29 0.25,2.24 -1.33,3 -3.31,3.3 -0.13,1.86 -0.64,3.04 -0.9,4.39 -0.31,1.63 -0.51,3.4 -0.72,5.01l-1.35 8.23c-0.37,1.35 0.28,0.68 -0.71,1.06z"/>
   <path class="fil7" d="M48.81 136.66c0.51,0.3 0.73,0.28 1.31,0.61l1.98 1.26c0.05,0.04 0.11,0.09 0.15,0.13 0.04,0.04 0.1,0.09 0.13,0.13 0.96,1.03 1.35,3.33 0.19,4.6 -1.16,1.28 -1.36,0.77 -2.86,0.01 -2.75,-1.39 -2.95,-0.94 -4.29,-3.34 -1.63,-2.96 1.97,-4.23 3.39,-3.4z"/>
   <path class="fil14" d="M160.3 40.72l-0.29 1.83c-2.34,0.01 -2.62,-2.07 -3.77,-4.08 -0.58,-1.02 -0.35,-0.86 -0.55,-2.12l0.03 -3.63c1.01,0 2.19,-0.05 3.12,0.01 0.25,0.01 0.54,0.02 0.77,0.08l1.59 1.17c-0.11,1.3 -0.12,2.26 -0.19,3.51 -0.1,1.57 -0.69,1.95 -0.71,3.23z"/>
   <path class="fil7" d="M114.14 150.75c-2.15,2.05 -4.73,0.13 -5.99,-1.37 -1.01,-1.2 -1.67,-1.59 -0.83,-2.95 0.48,-0.77 1.18,-1.13 2.16,-1.05 0.8,0.06 1.64,0.56 2.29,0.92 1.76,1 2.44,1.89 2.37,4.45z"/>
   <path class="fil7" d="M160.11 151.5c-2.92,0.73 -4.36,-1.31 -6.49,-2.92 -0.09,-1.65 -0.21,-2.12 1.16,-2.75 1.17,-0.53 2.09,-0.33 3.06,0.22 1.96,1.09 2.97,2.42 2.27,5.45z"/>
   <path class="fil12" d="M132.45 147.03l-1.89 0.08c-0.91,-0.48 -0.57,-0.63 -0.78,-1.75 -0.27,-1.44 -1.82,-3.96 -2.11,-5.18 1.78,0.4 -0.05,1.19 2.72,1.03 1.81,-0.1 2.18,-0.05 3.73,0.12 0.43,-0.46 0.5,-0.94 1.07,-1.24l-1.69 4.6c-0.73,1.51 0.05,1.12 -1.05,2.34z"/>
  </g>
 </g>
</svg>
