<?xml version="1.0" encoding="UTF-8"?>
<!DOCTYPE svg PUBLIC "-//W3C//DTD SVG 1.1//EN" "http://www.w3.org/Graphics/SVG/1.1/DTD/svg11.dtd">
<!-- Creator: CorelDRAW 2018 (64-Bit) -->
<svg xmlns="http://www.w3.org/2000/svg" xml:space="preserve" width="16px" height="16px" version="1.1" style="shape-rendering:geometricPrecision; text-rendering:geometricPrecision; image-rendering:optimizeQuality; fill-rule:evenodd; clip-rule:evenodd"
viewBox="0 0 16 16"
 xmlns:xlink="http://www.w3.org/1999/xlink">
 <defs>
  <style type="text/css">
   <![CDATA[
    .fil5 {fill:#005CA7}
    .fil4 {fill:#0660D6}
    .fil12 {fill:#8845BA}
    .fil6 {fill:#95DEF3}
    .fil1 {fill:#A454D9}
    .fil11 {fill:#B6EAF4}
    .fil2 {fill:#D5040D}
    .fil8 {fill:#DAF8F6}
    .fil9 {fill:#E44349}
    .fil10 {fill:#EBB505}
    .fil13 {fill:#F7CE2B}
    .fil0 {fill:#FB8B03}
    .fil14 {fill:#FCE351}
    .fil7 {fill:#FDAB3F}
    .fil3 {fill:#FDD303}
   ]]>
  </style>
 </defs>
 <g id="Слой_x0020_1">
  <metadata id="CorelCorpID_0Corel-Layer"/>
  <g id="_2602443053296">
   <path class="fil0" d="M13.25 4.64l0 0.18c0.48,0.05 1.11,-0.02 1.54,0.01 0.24,0.01 0.57,0.74 0.63,0.89 0.15,0.35 0.15,0.52 0.21,0.84 0.11,0.57 0.06,1.6 -0.08,2.14l-0.06 0.21c-0.08,0.28 -0.34,0.84 -0.57,0.98 -0.08,0.05 -3.83,0.02 -4.67,0.03 -0.11,0 -0.09,-0.01 -0.17,-0.03 -0.07,-0.02 -0.14,-0.01 -0.2,-0.03 -0.07,-0.02 -0.01,-0.03 -0.14,-0.06l-0.72 -0.25c0,0 -0.01,-0.01 -0.01,-0.01l-0.07 -0.03c-0.2,-0.06 0.04,0 -0.24,-0.11 -0.05,-0.02 -0.01,0 -0.05,-0.02l0 -4.55 3.01 0 0.08 -0.01 1.46 0c0,-0.09 0.08,-0.28 0.04,-0.34l0.01 0.16z"/>
   <path class="fil1" d="M1.94 3.43c-0.15,0.02 -0.39,0.05 -0.47,0.12l0.01 4.97c0.09,-0.02 0.11,-0.05 0.18,-0.07 0.08,-0.03 0.15,-0.04 0.23,-0.05 0.17,-0.05 0.31,-0.06 0.46,-0.09 1.11,-0.2 2.78,-0.09 3.9,0.22 0.44,0.11 1.34,0.4 1.69,0.59 0.06,0.03 0.03,0.01 0.1,0.03 0.22,0.06 0.41,0.21 0.59,0.21l0 -4.54 0.02 0.01 0 4.55c0.04,0.02 0,0 0.05,0.02 0.28,0.11 0.04,0.05 0.24,0.11l0.07 0.03c0,0 0.01,0.01 0.01,0.01l0.72 0.25c0.13,0.03 0.07,0.04 0.14,0.06 0.06,0.02 0.13,0.01 0.2,0.03 0.08,0.02 0.06,0.03 0.17,0.03 0.84,-0.01 4.59,0.02 4.67,-0.03l0.09 0.01c0.02,0.24 0.02,1.59 0.01,1.99 0,0.21 -0.09,0.37 -0.31,0.37 0.03,0.1 0.05,0.57 0.01,0.67 0.02,-0.12 0.01,-0.25 0.01,-0.37 0,-0.22 0.01,-0.19 -0.07,-0.34 -0.05,-0.09 -0.03,-0.2 -0.1,-0.31 -0.05,-0.09 -0.03,-0.03 -0.05,-0.14 -0.03,-0.11 -0.01,-0.03 -0.06,-0.11l-0.01 -0.03c-0.07,-0.13 -0.24,-0.35 -0.38,-0.42 -0.18,-0.09 -0.26,-0.21 -0.36,-0.24 -0.13,-0.05 0.01,0.02 -0.26,-0.08 -0.09,-0.03 0.02,0 -0.04,-0.01 -0.06,-0.02 -0.1,-0.02 -0.17,-0.04 -0.11,-0.02 -0.22,-0.05 -0.36,-0.05 -0.5,-0.01 -0.34,0.05 -0.52,0.09 -0.25,0.05 -0.23,0.07 -0.46,0.18 -0.01,0 -0.01,0.01 -0.02,0.01l-0.31 0.23c0,0 -0.08,0.11 -0.08,0.11 -0.14,0.2 -0.14,0.12 -0.15,0.26l-0.06 0c-0.05,0.03 -0.06,0.07 -0.09,0.11 -0.13,-0.02 -0.16,-0.02 -0.31,-0.01 -0.24,0.01 -0.08,-0.05 -0.23,-0.09 -0.13,-0.03 -0.02,0.01 -0.08,-0.07 -0.09,-0.11 -0.02,0.03 -0.1,-0.13 -0.03,-0.04 -0.01,-0.02 -0.04,-0.05l-0.1 -0.12c-0.02,-0.03 -0.02,-0.03 -0.05,-0.05 -0.05,-0.05 -0.03,-0.03 -0.09,-0.07 -0.07,-0.03 -0.04,-0.01 -0.09,-0.07 -0.08,-0.1 -0.24,-0.14 -0.3,-0.17 -0.07,-0.02 -0.04,-0.03 -0.08,-0.05l-0.06 -0.03c-0.01,0 -0.02,0 -0.02,0 -0.28,-0.11 -0.24,-0.09 -0.62,-0.09 -0.24,0 -0.37,-0.01 -0.55,0.08 -0.12,0.06 -0.16,0.05 -0.32,0.15 -0.25,0.14 -0.14,0.13 -0.28,0.21l-0.15 0.11c0,0 -0.01,0 -0.01,0 -0.01,0.01 -0.01,0.01 -0.02,0.02 -0.02,0.01 -0.01,0.02 -0.03,0.03 -0.09,0.1 -0.04,0.02 -0.1,0.15 -0.02,0.05 0,-0.01 -0.03,0.05 0,0 -0.02,0.05 -0.03,0.05 -0.04,0.06 0.01,0.03 -0.1,0.07 -0.06,-0.05 -0.48,-0.05 -0.57,-0.05 -0.14,0 -0.34,-0.05 -0.43,-0.04 -0.11,0.01 -0.08,0 -0.08,0.07l-0.04 -0.09c-0.03,0.02 -0.07,-0.02 -0.04,0.09l-0.01 -0.11 -0.1 0c-0.11,-0.15 -0.04,-0.14 -0.09,-0.31 -0.03,-0.1 -0.03,-0.03 -0.08,-0.12l-0.1 -0.23c-0.04,-0.09 0,-0.05 -0.07,-0.13 -0.13,-0.16 -0.15,-0.23 -0.21,-0.29l-0.05 -0.06c-0.03,-0.03 -0.04,-0.06 -0.09,-0.09 -0.09,-0.04 -0.06,0.02 -0.16,-0.07l-0.61 -0.37c0,-0.01 -0.01,-0.01 -0.01,-0.01 -0.04,-0.01 -0.04,-0.01 -0.08,-0.02 -0.08,-0.02 -0.08,-0.05 -0.13,-0.07l-0.53 -0.07c-0.11,0 -0.3,-0.01 -0.4,0 -0.05,0.01 -0.09,0.03 -0.16,0.04 -0.35,0.06 -0.14,0.01 -0.33,0.09l-0.19 0.07c-0.01,0 -0.03,0.01 -0.03,0.01l-0.19 0.1c-0.03,0.02 -0.05,0.03 -0.08,0.04l-0.18 0.15c-0.01,0 -0.01,0.01 -0.02,0.01 0,0.01 0,0.01 -0.01,0.01 -0.17,0.18 -0.11,0.04 -0.17,0.13 -0.13,0.02 -0.18,0.07 -0.15,0.21 -0.12,-0.01 -0.14,0.01 -0.19,0.1 0,0 -0.03,-0.06 -0.03,-0.06l-0.34 -0.24c-0.01,-0.01 -0.02,-0.02 -0.03,-0.03l-0.14 -0.17c-0.13,-0.16 -0.07,-0.53 -0.06,-0.79 0,-0.11 -0.01,-0.21 -0.01,-0.32 -0.01,-0.11 0.04,-0.19 0.02,-0.3 0.02,-0.12 0.13,-0.18 0.24,-0.23l0 -4.75c0,-0.05 0,-0.11 0,-0.16 0,-0.01 0,-0.05 0,-0.06 -0.01,-0.01 -0.01,-0.02 -0.01,-0.02 0,-0.01 0,-0.01 -0.01,-0.02 0,0 0,-0.01 0,-0.01 0,-0.01 -0.01,-0.02 -0.01,-0.02 0.1,-0.08 0.59,-0.14 0.72,-0.14 -0.04,0.05 -0.14,0.05 -0.21,0.06z"/>
   <path class="fil0" d="M6.12 11.57c0.01,0.13 0.02,0.08 0.04,0.15 0.01,0.05 0.01,0.11 0.01,0.16 0,0.13 0,0.25 0,0.38 0,0.12 -0.03,0.39 -0.07,0.49l-0.07 0.21c-0.03,0.07 -0.06,0.14 -0.09,0.21 -0.21,0.47 -0.7,0.94 -1.17,1.13 -0.09,0.04 -0.1,0.06 -0.2,0.09 -0.34,0.09 -0.39,0.12 -0.77,0.12 -0.73,0 -1.26,-0.29 -1.65,-0.66 -0.37,-0.35 -0.72,-0.92 -0.73,-1.59 0,-0.14 -0.01,-0.38 0.01,-0.51 0.02,-0.08 0.08,-0.1 0.09,-0.41 0.13,-0.09 -0.01,0.05 0.15,-0.22 0.04,-0.06 0.02,-0.09 0.07,-0.16l0.08 -0.11c0.03,-0.04 0.04,-0.05 0.07,-0.1 0.07,-0.1 0.05,-0.04 0.1,-0.11 0.02,-0.04 0.03,-0.09 0.07,-0.13 0.08,-0.12 0.06,0.02 0.09,-0.13 0.06,-0.09 0,0.05 0.17,-0.13 0.01,0 0.01,0 0.01,-0.01 0.01,0 0.01,-0.01 0.02,-0.01l0.18 -0.15c0.03,-0.01 0.05,-0.02 0.08,-0.04l0.19 -0.1c0,0 0.02,-0.01 0.03,-0.01l0.19 -0.07c0.19,-0.08 -0.02,-0.03 0.33,-0.09 0.07,-0.01 0.11,-0.03 0.16,-0.04 0.1,-0.01 0.29,0 0.4,0l0.53 0.07c0.05,0.02 0.05,0.05 0.13,0.07 0.04,0.01 0.04,0.01 0.08,0.02 0,0 0.01,0 0.01,0.01l0.61 0.37c0.1,0.09 0.07,0.03 0.16,0.07 0.05,0.03 0.06,0.06 0.09,0.09l0.05 0.06c0.06,0.06 0.08,0.13 0.21,0.29 0.07,0.08 0.03,0.04 0.07,0.13l0.1 0.23c0.05,0.09 0.05,0.02 0.08,0.12 0.05,0.17 -0.02,0.16 0.09,0.31z"/>
   <path class="fil2" d="M8.65 3.5l-0.18 -0.04c-0.07,-0.03 -0.25,-0.07 -0.34,-0.08 -0.24,-0.02 -0.51,-0.09 -0.75,-0.11 -0.15,-0.01 -0.24,-0.03 -0.38,-0.05 -0.54,-0.04 -1.08,-0.08 -1.65,-0.09 -0.56,0 -2.66,0.05 -3.2,0.24 -0.13,0 -0.62,0.06 -0.72,0.14 -0.35,0.06 -0.53,0.09 -0.78,-0.12 -0.17,-0.14 -0.3,-0.38 -0.33,-0.67 -0.08,-0.69 0.48,-0.84 1.02,-0.97 1.6,-0.37 5.82,-0.34 7.43,0.01 0.53,0.11 1.11,0.31 1.01,0.98 -0.05,0.28 -0.16,0.51 -0.34,0.65 -0.26,0.21 -0.44,0.18 -0.79,0.11z"/>
   <path class="fil3" d="M5.91 12.11c0,0.34 -0.06,0.58 -0.18,0.87 -0.12,0.28 -0.19,0.38 -0.41,0.6 -0.26,0.26 -0.29,0.28 -0.59,0.43l-0.39 0.14c-0.39,0.14 -1.14,0.05 -1.47,-0.14 -0.4,-0.23 -0.55,-0.36 -0.81,-0.7 -0.07,-0.08 -0.12,-0.24 -0.18,-0.34 -0.24,-0.46 -0.22,-1.21 -0.01,-1.7 0.11,-0.25 0.24,-0.41 0.41,-0.6 0.16,-0.18 0.36,-0.34 0.59,-0.44 0.43,-0.18 0.57,-0.21 1.02,-0.21 0.09,0 0.35,0.03 0.43,0.06l0.36 0.13c0,0 0.01,0 0.02,0.01 0.23,0.09 0.44,0.27 0.6,0.43 0.33,0.33 0.61,0.82 0.61,1.46z"/>
   <path class="fil4" d="M8.47 3.46c0.02,0.1 0.05,0.01 0.11,0.07 0.01,0.33 0.04,1 -0.02,1.3 -0.05,0.28 0.05,3.15 -0.03,3.4l-0.58 -0.07 -0.04 -0.09 -0.32 -0.01 -0.04 -0.08c-0.08,0 -0.21,-0.01 -0.28,-0.02 -0.15,-0.03 -0.01,-0.01 -0.09,-0.05 -0.09,-0.04 -0.19,0 -0.31,-0.04 -0.23,-0.09 0.11,0.01 -0.07,-0.03 -0.06,-0.02 -0.22,-0.01 -0.29,-0.01l-0.05 -0.13 -0.31 -0.01c-0.01,0 -0.02,-0.03 -0.02,-0.03 -0.05,-0.05 -0.05,-0.03 -0.13,-0.08 -0.07,-0.03 -0.05,-0.03 -0.09,-0.04 -0.05,-0.02 -0.1,-0.01 -0.15,-0.02l-0.31 -0.09c-0.1,-0.05 0.02,0.02 -0.03,-0.03l-0.03 -0.04c0,0 -0.01,-0.01 -0.01,-0.02l-0.33 -0.06 -0.02 -0.09c0.27,-0.04 0.99,0 1.36,-0.01l0.34 0c0.17,-0.01 0.08,0.02 0.12,-0.05l-0.01 -0.03c0.1,0.01 0.2,-0.11 0.22,-0.22 0.03,-0.09 0.04,-2.55 0.02,-2.79 -0.02,-0.16 -0.1,-0.21 -0.18,-0.3 0.07,-0.01 0.02,0 0.04,-0.03 -0.15,-0.07 -2.86,-0.04 -3.26,-0.03 -0.13,0 -0.48,-0.03 -0.57,0.04 -0.01,0.01 -0.08,0.09 -0.09,0.11 -0.11,0.2 -0.04,0.5 -0.03,0.74l-0.01 1.21c0.01,0.16 -0.02,0.27 -0.02,0.42l-0.01 -0.16c-0.2,0.01 -0.28,-0.08 -0.43,-0.22l-0.06 -0.05c-0.04,-0.03 -0.05,-0.01 -0.1,-0.06 -0.09,-0.1 0.05,-0.02 -0.16,-0.15l-0.09 -0.08c-0.04,-0.03 -0.06,-0.04 -0.08,-0.07l-0.28 -0.31c-0.08,-0.12 -0.02,-0.1 -0.18,-0.13 -0.01,-0.14 -0.06,-0.2 -0.06,-0.34 0,-0.13 -0.03,-1.28 0.06,-1.16 0,0.01 0.01,0 0.02,-0.01 0.12,-0.03 0.23,-0.01 0.32,-0.06 0,0 0.01,0 0.02,-0.01 0,0 0.01,0 0.01,-0.01 0.07,-0.01 0.17,-0.01 0.21,-0.06 0.54,-0.19 2.64,-0.24 3.2,-0.24 0.57,0.01 1.11,0.05 1.65,0.09 0.14,0.02 0.23,0.04 0.38,0.05 0.24,0.02 0.51,0.09 0.75,0.11 0.09,0.01 0.27,0.05 0.34,0.08z"/>
   <path class="fil0" d="M10.64 11.68c0.02,0.1 0.15,0.31 0.18,0.43 0.01,0.1 -0.02,0.11 0.06,0.15l0.01 0.46c0,0.17 -0.04,0.3 -0.07,0.45l-0.1 0.28c-0.19,0.34 -0.48,0.7 -0.84,0.86 -0.42,0.18 -0.82,0.27 -1.32,0.15 -0.14,-0.04 -0.24,-0.09 -0.38,-0.14 -0.3,-0.14 -0.63,-0.47 -0.79,-0.76 -0.22,-0.39 -0.29,-0.86 -0.19,-1.3 0.03,-0.2 0.01,-0.18 0.08,-0.33 0.04,-0.09 0.07,-0.15 0.11,-0.23 0.11,-0.04 0.06,-0.01 0.1,-0.07 0.01,0 0.03,-0.05 0.03,-0.05 0.03,-0.06 0.01,0 0.03,-0.05 0.06,-0.13 0.01,-0.05 0.1,-0.15 0.02,-0.01 0.01,-0.02 0.03,-0.03 0.01,-0.01 0.01,-0.01 0.02,-0.02 0,0 0.01,0 0.01,0l0.15 -0.11c0.14,-0.08 0.03,-0.07 0.28,-0.21 0.16,-0.1 0.2,-0.09 0.32,-0.15 0.18,-0.09 0.31,-0.08 0.55,-0.08 0.38,0 0.34,-0.02 0.62,0.09 0,0 0.01,0 0.02,0l0.06 0.03c0.04,0.02 0.01,0.03 0.08,0.05 0.06,0.03 0.22,0.07 0.3,0.17 0.05,0.06 0.02,0.04 0.09,0.07 0.06,0.04 0.04,0.02 0.09,0.07 0.03,0.02 0.03,0.02 0.05,0.05l0.1 0.12c0.03,0.03 0.01,0.01 0.04,0.05 0.08,0.16 0.01,0.02 0.1,0.13 0.06,0.08 -0.05,0.04 0.08,0.07z"/>
   <path class="fil0" d="M14.72 12.93c-0.08,0.73 -0.63,1.28 -1.33,1.51 -0.24,0.07 -0.58,0.1 -0.86,0.04 -0.49,-0.09 -0.91,-0.38 -1.15,-0.72 -0.15,-0.21 -0.23,-0.36 -0.31,-0.63 -0.1,-0.31 -0.03,-0.58 -0.03,-0.88 0.09,-0.1 0.02,-0.07 0.09,-0.19l0.14 -0.39 0.06 0c0.01,-0.14 0.01,-0.06 0.15,-0.26 0,0 0.08,-0.11 0.08,-0.11l0.31 -0.23c0.01,0 0.01,-0.01 0.02,-0.01 0.23,-0.11 0.21,-0.13 0.46,-0.18 0.18,-0.04 0.02,-0.1 0.52,-0.09 0.14,0 0.25,0.03 0.36,0.05 0.07,0.02 0.11,0.02 0.17,0.04 0.06,0.01 -0.05,-0.02 0.04,0.01 0.27,0.1 0.13,0.03 0.26,0.08 0.1,0.03 0.18,0.15 0.36,0.24 0.14,0.07 0.31,0.29 0.38,0.42l0.01 0.03c0.05,0.08 0.03,0 0.06,0.11 0.02,0.11 0,0.05 0.05,0.14 0.07,0.11 0.05,0.22 0.1,0.31 0.08,0.15 0.07,0.12 0.07,0.34 0,0.12 0.01,0.25 -0.01,0.37z"/>
   <path class="fil5" d="M6.9 3.79c-0.6,-0.06 -1.33,-0.03 -1.97,-0.03 -0.34,0 -0.68,0 -1.02,0 -0.26,0 -0.76,-0.06 -0.82,0.16 -0.04,0.03 -0.01,-0.03 -0.06,0.07 -0.02,0.06 -0.02,0.24 -0.02,0.31l0.01 2.23c0,0.18 -0.05,0.54 0.27,0.6l1.77 0.01c0.56,0 1.24,0.03 1.79,-0.01 -0.04,0.07 0.05,0.04 -0.12,0.05l-0.34 0c-0.37,0.01 -1.09,-0.03 -1.36,0.01l0.02 0.09 0.33 0.06c0,0.01 0.01,0.02 0.01,0.02l0.03 0.04c0.05,0.05 -0.07,-0.02 0.03,0.03l0.31 0.09c0.05,0.01 0.1,0 0.15,0.02 0.04,0.01 0.02,0.01 0.09,0.04 0.08,0.05 0.08,0.03 0.13,0.08 0,0 0.01,0.03 0.02,0.03l0.31 0.01 0.05 0.13c0.07,0 0.23,-0.01 0.29,0.01 0.18,0.04 -0.16,-0.06 0.07,0.03 0.12,0.04 0.22,0 0.31,0.04 0.08,0.04 -0.06,0.02 0.09,0.05 0.07,0.01 0.2,0.02 0.28,0.02l0.04 0.08 0.32 0.01 0.04 0.09 0.58 0.07c0.08,-0.25 -0.02,-3.12 0.03,-3.4 0.06,-0.3 0.03,-0.97 0.02,-1.3 -0.06,-0.06 -0.09,0.03 -0.11,-0.07l0.18 0.04 -0.02 1.32 0 4.54c-0.18,0 -0.37,-0.15 -0.59,-0.21 -0.07,-0.02 -0.04,0 -0.1,-0.03 -0.35,-0.19 -1.25,-0.48 -1.69,-0.59 -1.12,-0.31 -2.79,-0.42 -3.9,-0.22 -0.15,0.03 -0.29,0.04 -0.46,0.09 -0.08,0.01 -0.15,0.02 -0.23,0.05 -0.07,0.02 -0.09,0.05 -0.18,0.07l-0.01 -4.97c0.08,-0.07 0.32,-0.1 0.47,-0.12 0,0.01 -0.01,0.01 -0.01,0.01 -0.01,0.01 -0.02,0.01 -0.02,0.01 -0.09,0.05 -0.2,0.03 -0.32,0.06 -0.01,0.01 -0.02,0.02 -0.02,0.01 -0.09,-0.12 -0.06,1.03 -0.06,1.16 0,0.14 0.05,0.2 0.06,0.34 0.16,0.03 0.1,0.01 0.18,0.13l0.28 0.31c0.02,0.03 0.04,0.04 0.08,0.07l0.09 0.08c0.21,0.13 0.07,0.05 0.16,0.15 0.05,0.05 0.06,0.03 0.1,0.06l0.06 0.05c0.15,0.14 0.23,0.23 0.43,0.22l0.01 0.16c0,-0.15 0.03,-0.26 0.02,-0.42l0.01 -1.21c-0.01,-0.24 -0.08,-0.54 0.03,-0.74 0.01,-0.02 0.08,-0.1 0.09,-0.11 0.09,-0.07 0.44,-0.04 0.57,-0.04 0.4,-0.01 3.11,-0.04 3.26,0.03 -0.02,0.03 0.03,0.02 -0.04,0.03z"/>
   <path class="fil3" d="M9.2 11.01c0.65,0.11 0.48,0.14 0.81,0.3 0.08,0.04 0.04,0.01 0.07,0.05 0.22,0.21 0.36,0.42 0.5,0.72 0.2,0.42 0.08,1.21 -0.28,1.62 -0.18,0.21 -0.43,0.38 -0.72,0.49 -0.8,0.31 -1.82,-0.14 -2.1,-1 -0.17,-0.51 -0.1,-1.04 0.18,-1.5l0.29 -0.3c0.25,-0.24 0.78,-0.45 1.25,-0.38z"/>
   <path class="fil3" d="M12.92 14.28c-0.14,0 -0.27,0 -0.4,-0.03 -0.26,-0.07 -0.61,-0.24 -0.79,-0.43 -0.3,-0.3 -0.48,-0.72 -0.48,-1.17 0,-0.34 0.09,-0.7 0.27,-0.95 0,0 0,-0.01 0.01,-0.01 0.1,-0.14 0.24,-0.29 0.38,-0.39 0,0 0.01,0 0.01,-0.01 0.09,-0.05 0.17,-0.1 0.26,-0.14 0.07,-0.03 0.08,-0.04 0.15,-0.06 0.59,-0.21 1.33,-0.04 1.72,0.39 0.07,0.08 0.1,0.13 0.18,0.22 0.29,0.31 0.34,0.9 0.24,1.28 -0.06,0.24 -0.03,0.3 -0.23,0.59l-0.16 0.22c-0.12,0.16 -0.33,0.25 -0.51,0.33 -0.16,0.08 -0.45,0.16 -0.65,0.16z"/>
   <path class="fil6" d="M6.46 6.85c-0.28,-0.05 -1.08,0 -1.42,0 -0.22,0 -0.52,-0.02 -0.72,-0.01 -0.27,0.03 -0.49,0.04 -0.74,0.02 -0.29,-0.03 -0.3,-0.19 -0.26,-0.48 0.04,-0.37 -0.05,-2.05 0.03,-2.22l0 -0.06c0,0.24 -0.01,0.18 0.13,0.16 0.33,-0.05 1.75,-0.03 2.17,-0.03 0.3,0 0.52,0.02 0.81,0.02l0.06 0.12c0.07,0.11 0.04,-0.05 0.05,0.06l0 1.9c0,0.09 0.01,0.23 0,0.32 -0.01,0.1 -0.03,0.14 -0.07,0.18 0,0 -0.01,0 -0.01,0.01l-0.03 0.01z"/>
   <path class="fil7" d="M15.14 7.34c-0.19,0.03 -0.12,0.06 -0.25,0.09l-0.75 -0.09c-0.1,-0.01 -0.03,0 -0.12,-0.05 -0.12,-0.05 -0.26,-0.02 -0.47,-0.12 -0.18,-0.1 -0.12,-0.05 -0.24,-0.1l-0.33 -0.14c-0.3,-0.15 -0.08,-0.08 -0.29,-0.19 -0.09,-0.05 -0.05,-0.06 -0.09,-0.09 -0.04,-0.03 -0.06,-0.01 -0.12,-0.04l-0.5 -0.56c-0.07,-0.06 -0.04,-0.01 -0.09,-0.09 -0.03,-0.06 0.02,-0.02 0,-0.26 -0.02,-0.44 -0.01,-0.48 0.46,-0.48 0.27,0 2.16,-0.03 2.34,0.04 0.01,0 0.06,0.02 0.06,0.03 0.04,0.02 0.02,0.01 0.05,0.04l0.34 0.61c0.01,0.02 0.09,1.02 0.07,1.16 -0.02,0.11 0.01,-0.05 -0.01,0.04 -0.03,0.08 -0.04,0.06 -0.06,0.2z"/>
   <path class="fil3" d="M12.97 3.03c0.02,0.1 0,0.09 0.05,0.18 0.1,0.16 0.12,0.34 0.31,0.34l0.03 -0.16c0.13,-0.05 0.03,-0.01 0.07,0.01 -0.01,0.11 -0.02,0.25 -0.04,0.36 -0.03,0.12 -0.08,0.19 -0.05,0.34 0.04,0.18 -0.03,0.32 -0.05,0.41 -0.01,0.02 -0.01,0.04 -0.01,0.06 0,0 0,0.01 -0.01,0.02l-0.02 0.05 -0.01 -0.16c0.04,0.06 -0.04,0.25 -0.04,0.34l-1.46 0 -0.09 -0.86c-0.05,-0.32 0,-0.17 -0.01,-0.29 -0.01,-0.1 -0.07,-0.09 -0.08,-0.21 -0.01,-0.1 -0.02,-0.2 -0.04,-0.3 -0.04,-0.22 -0.02,-0.46 -0.05,-0.62l2.08 0c0.05,0.26 -0.02,0.07 -0.04,0.44 -0.01,0.11 -0.05,0.12 -0.05,0.13 -0.01,-0.13 -0.05,-0.07 0,-0.2 0.03,-0.09 0.07,-0.08 0.01,-0.17 -0.06,-0.06 -0.46,-0.04 -0.54,-0.04l0 0.27c0.02,0.06 -0.02,0.02 0.04,0.06z"/>
   <path class="fil8" d="M6.9 3.79c0.08,0.09 0.16,0.14 0.18,0.3 0.02,0.24 0.01,2.7 -0.02,2.79 -0.02,0.11 -0.12,0.23 -0.22,0.22l-1.96 0c-0.2,0 -0.34,-0.04 -0.56,-0.05l0.08 -0.04c-0.08,-0.05 -0.07,0 -0.09,-0.11l0.3 -0.03c0.39,0 1.92,0.05 2.06,-0.03 0.1,-0.11 0.12,-0.07 0.13,-0.28l-0.01 -2.01c0,-0.3 0.06,-0.48 -0.28,-0.51 -0.49,-0.04 -1.77,0 -2.4,0 -0.36,0 -0.48,-0.04 -0.76,0.06l0 0.06c-0.05,0.04 -0.03,0.01 -0.05,0.07 -0.03,0.05 -0.01,2.07 -0.01,2.14 -0.04,-0.02 -0.11,-0.03 -0.16,-0.05 -0.05,-0.03 -0.01,-0.01 -0.05,-0.04 -0.03,-0.02 -0.02,-0.02 -0.04,-0.04l0 -2.12c0.04,-0.04 -0.03,-0.02 0.06,-0.05 0,-0.18 -0.08,0.07 -0.01,-0.15 0.06,-0.22 0.56,-0.16 0.82,-0.16 0.34,0 0.68,0 1.02,0 0.64,0 1.37,-0.03 1.97,0.03z"/>
   <path class="fil0" d="M2.91 12.16c0,-0.36 0.2,-0.71 0.51,-0.83 0.12,-0.05 0.25,-0.08 0.38,-0.08 0.49,0 0.86,0.38 0.87,0.86 0.02,0.5 -0.38,0.88 -0.85,0.9 -0.49,0.01 -0.91,-0.39 -0.91,-0.85z"/>
   <path class="fil6" d="M6.67 6.84l-0.21 0.01 0.03 -0.01c0,-0.01 0.01,-0.01 0.01,-0.01 0.04,-0.04 0.06,-0.08 0.07,-0.18 0.01,-0.09 0,-0.23 0,-0.32l0 -1.9c-0.01,-0.11 0.02,0.05 -0.05,-0.06l-0.06 -0.12c-0.29,0 -0.51,-0.02 -0.81,-0.02 -0.42,0 -1.84,-0.02 -2.17,0.03 -0.14,0.02 -0.13,0.08 -0.13,-0.16 0.28,-0.1 0.4,-0.06 0.76,-0.06 0.63,0 1.91,-0.04 2.4,0 0.34,0.03 0.28,0.21 0.28,0.51l0.01 2.01c-0.01,0.21 -0.03,0.17 -0.13,0.28z"/>
   <path class="fil9" d="M6.55 1.73c0.18,-0.11 1.61,0.08 1.8,0.12 0.31,0.06 1.14,0.21 1.12,0.62 0,0.11 -0.03,0.15 -0.06,0.19 -0.12,0.18 -0.3,0 -0.66,-0.15 -0.25,-0.1 -0.51,-0.17 -0.74,-0.25l-1.32 -0.42c-0.09,-0.02 -0.13,-0.02 -0.14,-0.11z"/>
   <path class="fil0" d="M13.06 12.05c0.11,0.03 0.13,0.06 0.19,0.11 0.11,0.07 0.08,0.06 0.15,0.17 0.28,0.44 -0.12,1.09 -0.71,0.91 -0.73,-0.22 -0.5,-1.38 0.37,-1.19z"/>
   <path class="fil0" d="M8.4 12.72c0,-0.29 0.06,-0.44 0.28,-0.58 0.12,-0.09 0.09,-0.1 0.31,-0.1 0.82,-0.03 0.85,1.16 0.09,1.23 -0.38,0.03 -0.68,-0.3 -0.68,-0.55z"/>
   <path class="fil10" d="M13.55 2.54l-2.08 0c-0.14,-0.03 -0.05,-0.07 -0.27,-0.07 0,-0.01 -0.01,-0.03 -0.01,-0.02 0,0 -0.01,-0.02 -0.01,-0.02 0,-0.01 -0.01,-0.02 -0.01,-0.02 -0.01,-0.02 -0.02,-0.04 -0.03,-0.05l-0.05 -0.12c0.1,-0.17 0.26,-0.11 0.5,-0.11l1.17 0c0.05,0 0.09,0.01 0.14,0.01l0.11 -0.03c0.1,-0.02 0.23,-0.01 0.34,-0.01l-0.38 0.05c0,0.18 0.03,0.08 0.43,0.18 0.06,0.02 0.2,0.03 0.26,0.03 0.11,-0.02 0.09,-0.06 0.13,-0.1 0.04,-0.05 0,-0.03 0.05,-0.04 0.17,0.15 -0.14,0.25 -0.17,0.26 -0.02,0.01 -0.03,0.04 -0.12,0.06z"/>
   <path class="fil11" d="M3.35 4.16c-0.08,0.17 0.01,1.85 -0.03,2.22 -0.04,0.29 -0.03,0.45 0.26,0.48 0.25,0.02 0.47,0.01 0.74,-0.02 0.2,-0.01 0.5,0.01 0.72,0.01 0.34,0 1.14,-0.05 1.42,0l0.21 -0.01c-0.14,0.08 -1.67,0.03 -2.06,0.03l-0.3 0.03c0.02,0.11 0.01,0.06 0.09,0.11l-0.08 0.04c0.22,0.01 0.36,0.05 0.56,0.05l1.96 0 0.01 0.03c-0.55,0.04 -1.23,0.01 -1.79,0.01l-1.77 -0.01c-0.32,-0.06 -0.27,-0.42 -0.27,-0.6l-0.01 -2.23c0,-0.07 0,-0.25 0.02,-0.31 0.05,-0.1 0.02,-0.04 0.06,-0.07 -0.07,0.22 0.01,-0.03 0.01,0.15 -0.09,0.03 -0.02,0.01 -0.06,0.05l0 2.12c0.02,0.02 0.01,0.02 0.04,0.04 0.04,0.03 0,0.01 0.05,0.04 0.05,0.02 0.12,0.03 0.16,0.05 0,-0.07 -0.02,-2.09 0.01,-2.14 0.02,-0.06 0,-0.03 0.05,-0.07z"/>
   <path class="fil12" d="M2.15 10.38c-0.03,0.15 -0.01,0.01 -0.09,0.13 -0.04,0.04 -0.05,0.09 -0.07,0.13 -0.05,0.07 -0.03,0.01 -0.1,0.11 -0.03,0.05 -0.04,0.06 -0.07,0.1l-0.08 0.11c-0.05,0.07 -0.03,0.1 -0.07,0.16 -0.16,0.27 -0.02,0.13 -0.15,0.22 -0.01,0.31 -0.07,0.33 -0.09,0.41 -0.02,0.13 -0.01,0.37 -0.01,0.51 -0.33,-0.02 -0.25,-0.39 -0.25,-0.69l0.01 -1.87c0,-0.25 -0.05,-0.73 0.04,-0.92 0.02,0.11 -0.03,0.19 -0.02,0.3 0,0.11 0.01,0.21 0.01,0.32 -0.01,0.26 -0.07,0.63 0.06,0.79l0.14 0.17c0.01,0.01 0.02,0.02 0.03,0.03l0.34 0.24c0,0 0.03,0.06 0.03,0.06 0.05,-0.09 0.07,-0.11 0.19,-0.1 -0.03,-0.14 0.02,-0.19 0.15,-0.21z"/>
   <path class="fil12" d="M7.39 11.7c-0.04,0.08 -0.07,0.14 -0.11,0.23 -0.07,0.15 -0.05,0.13 -0.08,0.33l-1.03 0c0,-0.13 0,-0.25 0,-0.38 0,-0.05 0,-0.11 -0.01,-0.16 -0.02,-0.07 -0.03,-0.02 -0.04,-0.15l0.1 0 0.01 0.11c-0.03,-0.11 0.01,-0.07 0.04,-0.09l0.04 0.09c0,-0.07 -0.03,-0.06 0.08,-0.07 0.09,-0.01 0.29,0.04 0.43,0.04 0.09,0 0.51,0 0.57,0.05z"/>
   <path class="fil13" d="M13.34 4.1c-0.03,-0.15 0.02,-0.22 0.05,-0.34 0.02,-0.11 0.03,-0.25 0.04,-0.36 -0.04,-0.02 0.06,-0.06 -0.07,-0.01 0,-0.1 0.05,-0.13 0.06,-0.27 0,-0.1 0,-0.18 0.01,-0.29l-0.13 -0.1c-0.02,0 -0.04,0 -0.06,0 -0.08,-0.01 -0.18,0 -0.26,0l-0.01 0.3c-0.06,-0.04 -0.02,0 -0.04,-0.06l0 -0.27c0.08,0 0.48,-0.02 0.54,0.04 0.06,0.09 0.02,0.08 -0.01,0.17 -0.05,0.13 -0.01,0.07 0,0.2 0,-0.01 0.04,-0.02 0.05,-0.13 0.02,-0.37 0.09,-0.18 0.04,-0.44 0.09,-0.02 0.1,-0.05 0.12,-0.06 0.03,-0.01 0.34,-0.11 0.17,-0.26 -0.05,0.01 -0.01,-0.01 -0.05,0.04 -0.04,0.04 -0.02,0.08 -0.13,0.1 -0.06,0 -0.2,-0.01 -0.26,-0.03 -0.4,-0.1 -0.43,0 -0.43,-0.18l0.38 -0.05c-0.11,0 -0.24,-0.01 -0.34,0.01l-0.11 0.03c-0.05,0 -0.09,-0.01 -0.14,-0.01l-1.17 0c-0.24,0 -0.4,-0.06 -0.5,0.11l0.05 0.12c0.01,0.01 0.02,0.03 0.03,0.05 0,0 0.01,0.01 0.01,0.02 0,0 0.01,0.02 0.01,0.02 0,-0.01 0.01,0.01 0.01,0.02 0.22,0 0.13,0.04 0.27,0.07 0.03,0.16 0.01,0.4 0.05,0.62 0.02,0.1 0.03,0.2 0.04,0.3 0.01,0.12 0.07,0.11 0.08,0.21 0.01,0.12 -0.04,-0.03 0.01,0.29l0.09 0.86 -0.08 0.01c0.02,-0.11 -0.03,-0.45 -0.06,-0.57 -0.04,-0.19 -0.04,-0.38 -0.07,-0.59 -0.02,-0.18 -0.05,-0.37 -0.08,-0.57 -0.02,-0.16 -0.03,-0.43 -0.08,-0.57 -0.18,-0.01 -0.31,-0.02 -0.31,-0.22 -0.01,-0.2 0.13,-0.23 0.32,-0.23l2.17 0c0.19,0 0.35,-0.01 0.37,0.19 0.02,0.18 -0.11,0.25 -0.27,0.27 -0.02,0.16 -0.06,0.26 -0.08,0.37 -0.03,0.13 -0.04,0.28 -0.06,0.42l-0.11 0.68c-0.03,0.11 0.02,0.06 -0.06,0.09z"/>
   <path class="fil7" d="M4.07 11.39c0.04,0.02 0.06,0.02 0.11,0.05l0.16 0.1c0.01,0.01 0.01,0.01 0.01,0.01 0.01,0.01 0.01,0.01 0.02,0.02 0.08,0.08 0.11,0.27 0.01,0.38 -0.1,0.11 -0.11,0.06 -0.24,0 -0.23,-0.12 -0.24,-0.08 -0.35,-0.28 -0.14,-0.24 0.16,-0.35 0.28,-0.28z"/>
   <path class="fil14" d="M13.36 3.39l-0.03 0.16c-0.19,0 -0.21,-0.18 -0.31,-0.34 -0.05,-0.09 -0.03,-0.08 -0.05,-0.18l0.01 -0.3c0.08,0 0.18,-0.01 0.26,0 0.02,0 0.04,0 0.06,0l0.13 0.1c-0.01,0.11 -0.01,0.19 -0.01,0.29 -0.01,0.14 -0.06,0.17 -0.06,0.27z"/>
   <path class="fil7" d="M9.51 12.56c-0.18,0.17 -0.39,0.01 -0.5,-0.11 -0.08,-0.1 -0.14,-0.13 -0.07,-0.25 0.04,-0.06 0.1,-0.09 0.18,-0.09 0.07,0.01 0.14,0.05 0.19,0.08 0.15,0.08 0.21,0.16 0.2,0.37z"/>
   <path class="fil7" d="M13.34 12.63c-0.24,0.06 -0.36,-0.11 -0.54,-0.25 -0.01,-0.14 -0.02,-0.17 0.1,-0.23 0.1,-0.04 0.17,-0.02 0.25,0.02 0.17,0.09 0.25,0.2 0.19,0.46z"/>
   <path class="fil12" d="M11.04 12.25l-0.16 0.01c-0.08,-0.04 -0.05,-0.05 -0.06,-0.15 -0.03,-0.12 -0.16,-0.33 -0.18,-0.43 0.15,0.04 -0.01,0.1 0.23,0.09 0.15,-0.01 0.18,-0.01 0.31,0.01 0.03,-0.04 0.04,-0.08 0.09,-0.11l-0.14 0.39c-0.07,0.12 0,0.09 -0.09,0.19z"/>
  </g>
 </g>
</svg>
