<?xml version="1.0" encoding="UTF-8"?>
<!DOCTYPE svg PUBLIC "-//W3C//DTD SVG 1.1//EN" "http://www.w3.org/Graphics/SVG/1.1/DTD/svg11.dtd">
<!-- Creator: CorelDRAW 2018 (64-Bit) -->
<svg xmlns="http://www.w3.org/2000/svg" xml:space="preserve" width="512px" height="512px" version="1.1" style="shape-rendering:geometricPrecision; text-rendering:geometricPrecision; image-rendering:optimizeQuality; fill-rule:evenodd; clip-rule:evenodd"
viewBox="0 0 512 512"
 xmlns:xlink="http://www.w3.org/1999/xlink">
 <defs>
  <style type="text/css">
   <![CDATA[
    .fil5 {fill:#005CA7}
    .fil4 {fill:#0660D6}
    .fil12 {fill:#8845BA}
    .fil6 {fill:#95DEF3}
    .fil1 {fill:#A454D9}
    .fil11 {fill:#B6EAF4}
    .fil2 {fill:#D5040D}
    .fil8 {fill:#DAF8F6}
    .fil9 {fill:#E44349}
    .fil10 {fill:#EBB505}
    .fil13 {fill:#F7CE2B}
    .fil0 {fill:#FB8B03}
    .fil14 {fill:#FCE351}
    .fil7 {fill:#FDAB3F}
    .fil3 {fill:#FDD303}
   ]]>
  </style>
 </defs>
 <g id="Слой_x0020_1">
  <metadata id="CorelCorpID_0Corel-Layer"/>
  <g id="_2602446087904">
   <path class="fil0" d="M424.08 148.48l-0.04 5.79c15.47,1.41 35.58,-0.57 49.36,0.2 7.7,0.42 18.12,23.85 20.12,28.63 4.66,11.11 4.6,16.65 6.58,26.8 3.56,18.23 2.06,51.06 -2.35,68.61l-2.01 6.6c-2.59,8.96 -10.93,27.02 -18.26,31.46 -2.45,1.61 -122.66,0.63 -149.39,0.71 -3.51,0.01 -2.93,-0.09 -5.43,-0.77 -2.31,-0.62 -4.45,-0.26 -6.53,-0.92 -2.25,-0.72 -0.35,-1.03 -4.32,-1.93l-23.07 -8.04c-0.13,-0.08 -0.29,-0.21 -0.42,-0.29l-2.13 -0.85c-6.37,-1.98 1.09,-0.2 -7.78,-3.64 -1.54,-0.6 -0.47,0.09 -1.54,-0.71l0 -145.41 96.26 -0.07 2.65 -0.33 46.53 0.04c0.13,-2.98 2.65,-9.14 1.32,-11.1l0.45 5.22z"/>
   <path class="fil1" d="M62.21 109.8c-4.78,0.5 -12.52,1.45 -15.05,3.92l0.22 158.96c2.92,-0.7 3.53,-1.69 5.87,-2.41 2.3,-0.72 4.78,-1 7.24,-1.62 5.36,-1.35 9.77,-1.7 14.81,-2.63 35.57,-6.55 88.96,-2.98 124.81,6.78 13.89,3.79 42.85,12.95 53.95,18.99 1.84,1.01 0.84,0.46 3.21,1.04 7.13,1.75 13.18,6.54 18.94,6.58l-0.13 -145.12 0.79 0.43 0 145.41c1.07,0.8 0,0.11 1.54,0.71 8.87,3.44 1.41,1.66 7.78,3.64l2.13 0.85c0.13,0.08 0.29,0.21 0.42,0.29l23.07 8.04c3.97,0.9 2.07,1.21 4.32,1.93 2.08,0.66 4.22,0.3 6.53,0.92 2.5,0.68 1.92,0.78 5.43,0.77 26.73,-0.08 146.94,0.9 149.39,-0.71l2.88 0.33c0.73,7.62 0.45,50.8 0.28,63.45 -0.08,6.78 -2.92,11.9 -9.87,12.01 0.86,3.14 1.64,18.24 0.35,21.47 0.54,-3.85 0.33,-7.92 0.32,-11.83 -0.01,-7.16 0.39,-6.12 -2.27,-10.85 -1.67,-2.98 -0.87,-6.36 -3.12,-9.97 -1.78,-2.86 -0.97,-1.01 -1.81,-4.51 -0.85,-3.53 -0.11,-0.94 -1.74,-3.56l-0.55 -0.93c-2.21,-4.21 -7.54,-11.27 -11.94,-13.46 -5.75,-2.86 -8.26,-6.75 -11.55,-7.81 -4.11,-1.34 0.18,0.92 -8.49,-2.47 -2.69,-1.05 0.72,0.17 -1.15,-0.39 -1.83,-0.55 -3.25,-0.63 -5.55,-1.08 -3.57,-0.7 -7.11,-1.62 -11.28,-1.73 -16.08,-0.4 -10.99,1.6 -16.92,2.81 -7.98,1.64 -7.25,2.47 -14.69,5.87 -0.17,0.07 -0.35,0.16 -0.52,0.24l-9.84 7.34c-0.12,0.11 -2.76,3.71 -2.78,3.74 -4.32,6.26 -4.2,3.66 -4.69,8.18l-2.05 0.15c-1.52,0.81 -1.71,2.07 -2.86,3.32 -4.13,-0.46 -5.11,-0.61 -9.93,-0.34 -7.4,0.42 -2.51,-1.67 -7.24,-2.75 -4.16,-0.84 -0.5,0.2 -2.71,-2.42 -2.83,-3.37 -0.42,0.96 -3.13,-3.96 -0.8,-1.45 -0.32,-0.78 -1.31,-1.75l-3.23 -3.9c-0.62,-0.83 -0.65,-0.86 -1.36,-1.57 -1.58,-1.57 -0.98,-0.95 -3.07,-2 -2.13,-1.07 -1.26,-0.55 -2.65,-2.29 -2.69,-3.37 -7.96,-4.68 -9.83,-5.44 -1.98,-0.8 -1.13,-1 -2.4,-1.81l-2.08 -0.81c-0.19,-0.06 -0.4,-0.1 -0.58,-0.17 -8.88,-3.27 -7.74,-2.87 -19.72,-2.76 -7.92,0.07 -11.85,-0.14 -17.57,2.66 -4,1.96 -5.21,1.68 -10.5,4.69 -7.71,4.38 -4.41,4.07 -8.82,6.92l-4.79 3.22c-0.14,0.09 -0.33,0.2 -0.46,0.3 -0.13,0.1 -0.29,0.24 -0.41,0.35 -0.57,0.51 -0.5,0.64 -0.99,1.19 -2.8,3.18 -1.42,0.57 -3.35,4.75 -0.69,1.51 0.23,-0.34 -0.72,1.46 -0.03,0.07 -0.91,1.67 -1,1.79 -1.39,1.91 0.07,0.93 -3.29,2.03 -1.87,-1.44 -15.5,-1.64 -18.19,-1.63 -4.71,0.01 -10.82,-1.41 -13.83,-1.07 -3.57,0.4 -2.6,-0.13 -2.62,2.03l-1.34 -2.7c-0.72,0.52 -2.06,-0.71 -1.14,2.97l-0.49 -3.59 -3.07 -0.13c-3.54,-4.86 -1.29,-4.35 -2.89,-9.97 -0.85,-3 -0.96,-0.68 -2.61,-3.79l-2.99 -7.25c-1.42,-2.94 0.01,-1.56 -2.27,-4.18 -4.34,-5 -4.83,-7.31 -6.71,-9.19l-1.76 -1.95c-0.85,-1.09 -1.15,-2.08 -2.78,-2.81 -2.99,-1.33 -1.97,0.38 -5.04,-2.25l-19.61 -12.09c-0.15,-0.08 -0.34,-0.17 -0.5,-0.23 -1.07,-0.42 -1.28,-0.27 -2.39,-0.61 -2.63,-0.79 -2.53,-1.61 -4.19,-2.14l-16.94 -2.46c-3.52,0.08 -9.69,-0.36 -12.77,0.16 -1.77,0.3 -2.87,0.93 -5.3,1.31 -11.09,1.74 -4.39,0.22 -10.48,2.9l-6.06 2.11c-0.2,0.1 -0.77,0.36 -0.98,0.45l-6.11 3.22c-0.83,0.48 -1.65,0.76 -2.33,1.27l-6.03 4.73c-0.11,0.11 -0.27,0.25 -0.39,0.36 -0.11,0.11 -0.26,0.25 -0.37,0.36 -5.59,5.64 -3.54,1.03 -5.57,4.18 -4.2,0.62 -5.86,1.98 -4.65,6.59 -4.1,-0.28 -4.46,0.27 -6.14,3.24 -0.11,-0.18 -0.99,-1.96 -1.04,-2.02l-10.99 -7.74c-0.16,-0.14 -0.59,-0.6 -0.73,-0.76l-4.65 -5.49c-4.01,-5.05 -2.06,-16.99 -1.98,-25.26 0.04,-3.49 -0.21,-6.73 -0.29,-10.14 -0.1,-3.71 1.25,-6.17 0.67,-9.71 0.81,-3.8 4.37,-5.91 7.75,-7.32l-0.01 -152.01c0,-1.64 0.08,-3.51 0.04,-5.11 -0.01,-0.35 -0.09,-1.8 -0.14,-2.08 -0.04,-0.22 -0.09,-0.41 -0.15,-0.61 -0.05,-0.19 -0.14,-0.39 -0.2,-0.55 -0.06,-0.15 -0.21,-0.39 -0.25,-0.51 -0.05,-0.12 -0.16,-0.34 -0.28,-0.48 3.39,-2.59 19.09,-4.42 22.98,-4.59 -1.2,1.78 -4.31,1.72 -6.48,2.06z"/>
   <path class="fil0" d="M195.82 370.16c0.18,4.28 0.62,2.78 1.15,4.75 0.44,1.64 0.38,3.62 0.43,5.39 0.11,4.01 0.16,7.86 0.17,11.86 -0.08,4.04 -0.99,12.76 -2.27,15.77l-2.35 6.92c-0.89,2.27 -1.75,4.39 -2.75,6.63 -6.76,15.12 -22.41,30.09 -37.63,36.22 -2.86,1.15 -3.28,1.95 -6.48,2.8 -10.62,2.85 -12.47,3.76 -24.58,3.77 -23.3,0.03 -40.32,-9.22 -52.81,-21.02 -11.78,-11.13 -23.1,-29.36 -23.21,-51.08 0.06,-4.39 -0.26,-12.15 0.4,-16.19 0.41,-2.52 2.37,-3.18 2.78,-13 4.26,-3.08 -0.23,1.66 4.81,-7.24 1.11,-1.96 0.72,-2.8 2.19,-5.05l2.53 -3.39c1.01,-1.27 1.32,-1.81 2.28,-3.29 2.15,-3.3 1.56,-1.42 3.09,-3.46 0.9,-1.2 1.16,-2.98 2.2,-4.35 2.78,-3.66 2,0.8 2.98,-3.91 2.03,-3.15 -0.02,1.46 5.57,-4.18 0.11,-0.11 0.26,-0.25 0.37,-0.36 0.12,-0.11 0.28,-0.25 0.39,-0.36l6.03 -4.73c0.68,-0.51 1.5,-0.79 2.33,-1.27l6.11 -3.22c0.21,-0.09 0.78,-0.35 0.98,-0.45l6.06 -2.11c6.09,-2.68 -0.61,-1.16 10.48,-2.9 2.43,-0.38 3.53,-1.01 5.3,-1.31 3.08,-0.52 9.25,-0.08 12.77,-0.16l16.94 2.46c1.66,0.53 1.56,1.35 4.19,2.14 1.11,0.34 1.32,0.19 2.39,0.61 0.16,0.06 0.35,0.15 0.5,0.23l19.61 12.09c3.07,2.63 2.05,0.92 5.04,2.25 1.63,0.73 1.93,1.72 2.78,2.81l1.76 1.95c1.88,1.88 2.37,4.19 6.71,9.19 2.28,2.62 0.85,1.24 2.27,4.18l2.99 7.25c1.65,3.11 1.76,0.79 2.61,3.79 1.6,5.62 -0.65,5.11 2.89,9.97z"/>
   <path class="fil2" d="M276.7 112.11l-5.73 -1.34c-2.22,-1.03 -8.02,-2.21 -10.91,-2.52 -7.64,-0.83 -16.11,-3.02 -23.75,-3.6 -5,-0.39 -7.84,-1.11 -12.29,-1.47 -17.42,-1.43 -34.56,-2.64 -52.66,-2.9 -17.99,-0.26 -85.15,1.62 -102.67,7.46 -3.89,0.17 -19.59,2 -22.98,4.59 -11.06,1.9 -16.86,2.73 -25.02,-4 -5.3,-4.36 -9.52,-12.13 -10.55,-21.32 -2.45,-21.9 15.45,-26.85 32.89,-30.92 51.17,-11.94 186.01,-11.07 237.71,0.15 16.78,3.64 35.47,10.03 32.17,31.3 -1.42,9.18 -5.04,16.48 -10.83,21.09 -8.16,6.5 -14.23,5.6 -25.38,3.48z"/>
   <path class="fil3" d="M189.12 387.55c0,10.98 -2.06,18.57 -5.82,27.84 -3.67,9.06 -5.91,12.1 -13.18,19.32 -8.26,8.21 -9.22,8.69 -18.92,13.49l-12.19 4.58c-12.62,4.55 -36.59,1.62 -47.24,-4.48 -12.67,-7.25 -17.47,-11.59 -25.95,-22.45 -2.04,-2.61 -3.89,-7.73 -5.57,-10.95 -7.67,-14.69 -6.98,-38.45 -0.35,-54.28 3.36,-8.03 7.51,-13.06 13.16,-19.33 5.08,-5.64 11.55,-10.8 18.74,-13.84 13.95,-5.89 18.28,-6.91 32.6,-6.91 2.89,0 11.27,1.16 13.7,1.97l11.65 4.2c0.17,0.07 0.35,0.15 0.52,0.22 7.5,3.01 14.24,8.61 19.44,13.88 10.49,10.61 19.41,26.28 19.41,46.74z"/>
   <path class="fil4" d="M270.97 110.77c0.81,3.17 1.58,0.33 3.73,2.23 0.24,10.38 1.25,32.04 -0.63,41.46 -1.81,9.01 1.38,100.86 -0.96,108.98l-18.66 -2.41 -1.45 -2.85 -10.11 -0.27 -1.22 -2.64c-2.76,0.08 -6.71,-0.13 -8.89,-0.61 -4.79,-1.03 -0.6,-0.25 -2.93,-1.45 -2.83,-1.44 -6.26,-0.09 -10.15,-1.52 -7.07,-2.61 3.74,0.49 -2.15,-0.86 -1.91,-0.44 -7.1,-0.2 -9.34,-0.2l-1.45 -4.23 -10.11 -0.16c-0.14,-0.17 -0.52,-1.06 -0.63,-1.19 -1.33,-1.65 -1.34,-1.02 -4.11,-2.36 -2.09,-1.02 -1.36,-1.03 -2.77,-1.45 -1.46,-0.44 -3.12,-0.34 -4.76,-0.57l-9.89 -3.06c-3.27,-1.52 0.6,0.95 -1.15,-0.81l-0.95 -1.32c-0.07,-0.11 -0.18,-0.36 -0.31,-0.51l-10.6 -2.04 -0.37 -2.88c8.35,-1.23 31.52,-0.04 43.48,-0.32l10.91 0.11c5.21,-0.32 2.38,0.52 3.63,-1.71l-0.1 -0.97c3.13,0.32 6.17,-3.35 7.02,-6.86 0.75,-3.13 1.03,-81.77 0.39,-89.28 -0.45,-5.34 -3.15,-6.73 -5.67,-9.79 2.24,-0.41 0.67,0.21 1.16,-1 -4.53,-2.2 -91.39,-1.16 -104.04,-1.03 -4.16,0.05 -15.34,-0.68 -18.32,1.45 -0.31,0.23 -2.55,2.94 -2.91,3.57 -3.66,6.31 -1.18,16 -1.14,23.46l0 39.01c0.07,4.84 -0.69,8.66 -0.74,13.2l-0.25 -4.98c-6.62,0.3 -9.06,-2.58 -13.99,-7.03l-1.85 -1.69c-1.28,-0.85 -1.56,-0.43 -3.07,-1.98 -2.92,-3 1.47,-0.46 -5.3,-4.76l-2.88 -2.43c-1.13,-0.97 -1.75,-1.49 -2.61,-2.34l-8.75 -9.98c-2.71,-3.59 -0.77,-3.14 -5.98,-4.1 -0.24,-4.36 -1.77,-6.31 -1.78,-10.7 -0.01,-4.18 -1.01,-41.25 1.8,-37.18 0.13,0.2 0.48,-0.2 0.67,-0.25 3.93,-1.07 7.51,-0.59 10.27,-1.93 0.2,-0.09 0.42,-0.27 0.58,-0.35 0.16,-0.09 0.39,-0.25 0.57,-0.39 2.17,-0.34 5.28,-0.28 6.48,-2.06 17.52,-5.84 84.68,-7.72 102.67,-7.46 18.1,0.26 35.24,1.47 52.66,2.9 4.45,0.36 7.29,1.08 12.29,1.47 7.64,0.58 16.11,2.77 23.75,3.6 2.89,0.31 8.69,1.49 10.91,2.52z"/>
   <path class="fil0" d="M340.47 373.8c0.75,3.27 4.9,9.99 5.62,13.81 0.56,2.99 -0.37,3.41 2.08,4.69l0.29 14.76c-0.12,5.55 -1.31,9.44 -2.35,14.41l-3.21 9.07c-5.82,10.63 -15.3,22.18 -26.87,27.32 -13.25,5.89 -26.21,8.82 -41.98,4.83 -4.61,-1.17 -7.83,-2.74 -12.14,-4.57 -9.87,-4.2 -20.16,-14.84 -25.51,-24.31 -7.02,-12.41 -9.25,-27.5 -5.9,-41.41 0.88,-6.38 0.17,-5.74 2.44,-10.65 1.34,-2.89 2.21,-4.84 3.56,-7.47 3.36,-1.1 1.9,-0.12 3.29,-2.03 0.09,-0.12 0.97,-1.72 1,-1.79 0.95,-1.8 0.03,0.05 0.72,-1.46 1.93,-4.18 0.55,-1.57 3.35,-4.75 0.49,-0.55 0.42,-0.68 0.99,-1.19 0.12,-0.11 0.28,-0.25 0.41,-0.35 0.13,-0.1 0.32,-0.21 0.46,-0.3l4.79 -3.22c4.41,-2.85 1.11,-2.54 8.82,-6.92 5.29,-3.01 6.5,-2.73 10.5,-4.69 5.72,-2.8 9.65,-2.59 17.57,-2.66 11.98,-0.11 10.84,-0.51 19.72,2.76 0.18,0.07 0.39,0.11 0.58,0.17l2.08 0.81c1.27,0.81 0.42,1.01 2.4,1.81 1.87,0.76 7.14,2.07 9.83,5.44 1.39,1.74 0.52,1.22 2.65,2.29 2.09,1.05 1.49,0.43 3.07,2 0.71,0.71 0.74,0.74 1.36,1.57l3.23 3.9c0.99,0.97 0.51,0.3 1.31,1.75 2.71,4.92 0.3,0.59 3.13,3.96 2.21,2.62 -1.45,1.58 2.71,2.42z"/>
   <path class="fil0" d="M471.12 413.83c-2.51,23.41 -20.17,41.01 -42.61,48.18 -7.59,2.42 -18.55,3.16 -27.44,1.47 -15.83,-3 -29.13,-12.27 -36.98,-23.06 -4.88,-6.71 -7.22,-11.61 -9.94,-20.34 -3.11,-9.99 -0.82,-18.38 -0.95,-27.99 2.93,-3.26 0.86,-2.23 2.81,-6.26l4.49 -12.26 2.05 -0.15c0.49,-4.52 0.37,-1.92 4.69,-8.18 0.02,-0.03 2.66,-3.63 2.78,-3.74l9.84 -7.34c0.17,-0.08 0.35,-0.17 0.52,-0.24 7.44,-3.4 6.71,-4.23 14.69,-5.87 5.93,-1.21 0.84,-3.21 16.92,-2.81 4.17,0.11 7.71,1.03 11.28,1.73 2.3,0.45 3.72,0.53 5.55,1.08 1.87,0.56 -1.54,-0.66 1.15,0.39 8.67,3.39 4.38,1.13 8.49,2.47 3.29,1.06 5.8,4.95 11.55,7.81 4.4,2.19 9.73,9.25 11.94,13.46l0.55 0.93c1.63,2.62 0.89,0.03 1.74,3.56 0.84,3.5 0.03,1.65 1.81,4.51 2.25,3.61 1.45,6.99 3.12,9.97 2.66,4.73 2.26,3.69 2.27,10.85 0.01,3.91 0.22,7.98 -0.32,11.83z"/>
   <path class="fil5" d="M220.77 121.23c-19.15,-1.75 -42.44,-0.76 -63.14,-0.76 -10.84,0 -21.67,0 -32.51,0 -8.24,0 -24.17,-2.18 -26.24,4.99 -1.32,0.93 -0.31,-1.12 -1.81,2.16 -0.89,1.95 -0.62,7.84 -0.62,9.94l0.09 71.53c0.02,5.57 -1.54,17.1 8.69,18.98l56.74 0.38c17.99,0.09 39.54,0.99 57.16,-0.32 -1.25,2.23 1.58,1.39 -3.63,1.71l-10.91 -0.11c-11.96,0.28 -35.13,-0.91 -43.48,0.32l0.37 2.88 10.6 2.04c0.13,0.15 0.24,0.4 0.31,0.51l0.95 1.32c1.75,1.76 -2.12,-0.71 1.15,0.81l9.89 3.06c1.64,0.23 3.3,0.13 4.76,0.57 1.41,0.42 0.68,0.43 2.77,1.45 2.77,1.34 2.78,0.71 4.11,2.36 0.11,0.13 0.49,1.02 0.63,1.19l10.11 0.16 1.45 4.23c2.24,0 7.43,-0.24 9.34,0.2 5.89,1.35 -4.92,-1.75 2.15,0.86 3.89,1.43 7.32,0.08 10.15,1.52 2.33,1.2 -1.86,0.42 2.93,1.45 2.18,0.48 6.13,0.69 8.89,0.61l1.22 2.64 10.11 0.27 1.45 2.85 18.66 2.41c2.34,-8.12 -0.85,-99.97 0.96,-108.98 1.88,-9.42 0.87,-31.08 0.63,-41.46 -2.15,-1.9 -2.92,0.94 -3.73,-2.23l5.73 1.34 -0.62 42.18 0.13 145.12c-5.76,-0.04 -11.81,-4.83 -18.94,-6.58 -2.37,-0.58 -1.37,-0.03 -3.21,-1.04 -11.1,-6.04 -40.06,-15.2 -53.95,-18.99 -35.85,-9.76 -89.24,-13.33 -124.81,-6.78 -5.04,0.93 -9.45,1.28 -14.81,2.63 -2.46,0.62 -4.94,0.9 -7.24,1.62 -2.34,0.72 -2.95,1.71 -5.87,2.41l-0.22 -158.96c2.53,-2.47 10.27,-3.42 15.05,-3.92 -0.18,0.14 -0.41,0.3 -0.57,0.39 -0.16,0.08 -0.38,0.26 -0.58,0.35 -2.76,1.34 -6.34,0.86 -10.27,1.93 -0.19,0.05 -0.54,0.45 -0.67,0.25 -2.81,-4.07 -1.81,33 -1.8,37.18 0.01,4.39 1.54,6.34 1.78,10.7 5.21,0.96 3.27,0.51 5.98,4.1l8.75 9.98c0.86,0.85 1.48,1.37 2.61,2.34l2.88 2.43c6.77,4.3 2.38,1.76 5.3,4.76 1.51,1.55 1.79,1.13 3.07,1.98l1.85 1.69c4.93,4.45 7.37,7.33 13.99,7.03l0.25 4.98c0.05,-4.54 0.81,-8.36 0.74,-13.2l0 -39.01c-0.04,-7.46 -2.52,-17.15 1.14,-23.46 0.36,-0.63 2.6,-3.34 2.91,-3.57 2.98,-2.13 14.16,-1.4 18.32,-1.45 12.65,-0.13 99.51,-1.17 104.04,1.03 -0.49,1.21 1.08,0.59 -1.16,1z"/>
   <path class="fil3" d="M294.45 352.43c20.74,3.33 15.41,4.36 25.99,9.64 2.28,1.14 1.02,0.15 2.25,1.36 6.94,6.83 11.28,13.52 15.8,23.05 6.43,13.54 2.67,38.96 -8.74,51.8 -6.04,6.82 -13.77,12.2 -23.18,15.85 -25.57,9.92 -58.22,-4.49 -67.15,-32.03 -5.34,-16.5 -3.32,-33.14 5.81,-48.17l9.18 -9.57c7.86,-7.4 25.08,-14.34 40.04,-11.93z"/>
   <path class="fil3" d="M413.39 457.08c-4.55,0 -8.51,-0.08 -12.64,-1.15 -8.51,-2.19 -19.51,-7.69 -25.4,-13.7 -9.49,-9.68 -15.49,-22.94 -15.49,-37.34 0,-10.89 2.88,-22.48 8.66,-30.42 0.09,-0.12 0.22,-0.29 0.31,-0.42 3.34,-4.43 7.71,-9.24 12.22,-12.32 0.15,-0.09 0.32,-0.21 0.46,-0.31 2.85,-1.86 5.32,-3.24 8.36,-4.63 2.21,-1.01 2.5,-1.3 4.55,-2.02 18.93,-6.62 42.73,-1.13 55.18,12.43 2.36,2.58 3.22,4.29 5.89,7.16 9.25,9.95 10.91,28.72 7.67,40.96 -2.02,7.63 -0.98,9.8 -7.42,18.94l-5.2 6.97c-3.9,5.11 -10.44,8.14 -16.16,10.7 -5.38,2.41 -14.52,5.15 -20.99,5.15z"/>
   <path class="fil6" d="M206.76 219.26c-8.99,-1.51 -34.58,-0.19 -45.52,-0.19 -6.93,0 -16.62,-0.64 -23.12,-0.06 -8.63,0.78 -15.59,1.2 -23.66,0.39 -9.21,-0.94 -9.44,-5.94 -8.27,-15.37 1.46,-11.83 -1.54,-65.43 0.86,-70.79l0.01 -2.07c0,7.83 -0.16,5.68 4.19,5.05 10.54,-1.53 56.05,-0.83 69.5,-0.83 9.65,0 16.75,0.73 26.01,0.73l1.98 3.62c2.11,3.69 1.06,-1.62 1.64,2.16l0 60.69c0,2.95 0.26,7.44 -0.08,10.22 -0.37,3.1 -1.18,4.45 -2.36,5.62 -0.08,0.08 -0.3,0.24 -0.37,0.3l-0.81 0.53z"/>
   <path class="fil7" d="M484.59 234.75c-6.16,0.97 -4.11,1.92 -8.02,2.87l-24.11 -2.69c-3.31,-0.53 -0.8,-0.17 -3.98,-1.67 -3.55,-1.68 -8.24,-0.7 -14.79,-3.94 -5.96,-2.95 -4.02,-1.56 -7.88,-2.94l-10.5 -4.72c-9.58,-4.75 -2.61,-2.47 -9.09,-5.99 -2.98,-1.62 -1.88,-1.89 -3.1,-2.82 -1.19,-0.91 -1.88,-0.45 -3.65,-1.42l-16.14 -17.81c-2.07,-1.97 -1.31,-0.33 -2.82,-2.91 -1.09,-1.86 0.52,-0.55 0.12,-8.34 -0.73,-14.16 -0.34,-15.25 14.7,-15.25 8.43,0 68.87,-1.18 74.77,1.15 0.32,0.13 1.74,0.82 1.94,0.95 1.09,0.69 0.73,0.43 1.62,1.34l10.69 19.51c0.3,0.71 3.03,32.5 2.28,37.09 -0.56,3.5 0.55,-1.65 -0.29,1.23 -0.78,2.67 -1.19,1.87 -1.75,6.36z"/>
   <path class="fil3" d="M415.17 96.93c0.54,3.37 -0.08,2.95 1.46,5.66 3.07,5.37 3.82,10.92 10.06,10.87l0.77 -4.88c4.31,-1.84 1.01,-0.43 2.3,0.09 -0.42,3.53 -0.73,8.26 -1.4,11.58 -0.83,4.06 -2.52,6.19 -1.5,10.98 1.35,5.58 -1,10.27 -1.64,13.03 -0.17,0.74 -0.17,1.25 -0.33,1.9 -0.05,0.22 -0.09,0.42 -0.15,0.63l-0.66 1.69 -0.45 -5.22c1.33,1.96 -1.19,8.12 -1.32,11.1l-46.53 -0.04 -2.84 -27.49c-1.67,-10.33 -0.18,-5.64 -0.48,-9.38 -0.25,-3.19 -2.16,-2.81 -2.58,-6.72 -0.36,-3.33 -0.67,-6.43 -1.29,-9.66 -1.34,-6.93 -0.45,-14.55 -1.48,-19.68l66.39 0c1.86,8.19 -0.47,2.21 -1.3,13.98 -0.26,3.59 -1.43,3.92 -1.63,4.17 -0.18,-4.2 -1.36,-2.13 0.07,-6.31 0.98,-2.86 2.27,-2.59 0.42,-5.52 -1.94,-1.82 -14.66,-1.4 -17.3,-1.18l0.06 8.4c0.64,2 -0.72,0.9 1.35,2z"/>
   <path class="fil8" d="M220.77 121.23c2.52,3.06 5.22,4.45 5.67,9.79 0.64,7.51 0.36,86.15 -0.39,89.28 -0.85,3.51 -3.89,7.18 -7.02,6.86l-62.86 0c-6.45,0.04 -10.9,-1.39 -18.03,-1.45l2.56 -1.45c-2.45,-1.69 -2.16,0.18 -2.92,-3.61l9.74 -0.7c12.41,0.02 61.46,1.35 66.07,-1.21 2.99,-3.43 3.8,-2.21 3.86,-8.9l-0.07 -64.33c0.04,-9.5 1.83,-15.37 -9.13,-16.22 -15.63,-1.2 -56.49,-0.14 -76.63,-0.14 -11.54,0 -15.33,-1.07 -24.56,2.02l-0.01 2.07c-1.4,1.19 -0.73,0.17 -1.51,2 -0.77,1.81 -0.22,66.22 -0.24,68.57 -1.34,-0.55 -3.43,-0.93 -4.98,-1.67 -1.88,-0.89 -0.42,-0.08 -1.74,-1.19 -0.82,-0.68 -0.68,-0.68 -1.32,-1.25l-0.01 -67.91c1.22,-1.14 -0.81,-0.64 2.02,-1.45 0.08,-5.85 -2.5,2.06 -0.39,-4.88 2.07,-7.17 18,-4.99 26.24,-4.99 10.84,0 21.67,0 32.51,0 20.7,0 43.99,-0.99 63.14,0.76z"/>
   <path class="fil0" d="M93.27 388.99c0,-11.41 6.29,-22.59 16.27,-26.39 3.88,-1.49 7.74,-2.59 11.96,-2.56 15.8,0.12 27.65,12.19 28.07,27.5 0.42,15.89 -12.36,28.27 -27.33,28.64 -15.72,0.4 -28.97,-12.23 -28.97,-27.19z"/>
   <path class="fil6" d="M213.59 218.74l-6.83 0.52 0.81 -0.53c0.07,-0.06 0.29,-0.22 0.37,-0.3 1.18,-1.17 1.99,-2.52 2.36,-5.62 0.34,-2.78 0.08,-7.27 0.08,-10.22l0 -60.69c-0.58,-3.78 0.47,1.53 -1.64,-2.16l-1.98 -3.62c-9.26,0 -16.36,-0.73 -26.01,-0.73 -13.45,0 -58.96,-0.7 -69.5,0.83 -4.35,0.63 -4.19,2.78 -4.19,-5.05 9.23,-3.09 13.02,-2.02 24.56,-2.02 20.14,0 61,-1.06 76.63,0.14 10.96,0.85 9.17,6.72 9.13,16.22l0.07 64.33c-0.06,6.69 -0.87,5.47 -3.86,8.9z"/>
   <path class="fil9" d="M209.5 55.2c5.73,-3.46 51.64,2.72 57.78,3.93 9.69,1.92 36.46,6.78 35.88,19.89 -0.15,3.42 -0.93,4.7 -2.03,6.22 -3.99,5.51 -9.67,-0.12 -21.19,-4.8 -7.93,-3.22 -16.38,-5.51 -23.62,-8.14l-42.28 -13.39c-2.93,-0.73 -4.14,-0.51 -4.54,-3.71z"/>
   <path class="fil0" d="M418.04 385.71c3.37,0.75 4.13,1.9 6.1,3.36 3.25,2.4 2.43,1.83 4.72,5.43 8.96,14.1 -3.94,34.98 -22.88,29.27 -23.24,-7.01 -15.83,-44.21 12.06,-38.06z"/>
   <path class="fil0" d="M268.83 407.05c0,-9.29 2.02,-13.96 8.8,-18.69 3.96,-2.76 3.03,-2.99 10.05,-3.2 26.35,-0.8 27.12,37.24 2.79,39.38 -11.99,1.06 -21.64,-9.59 -21.64,-17.49z"/>
   <path class="fil10" d="M433.5 81.39l-66.39 0c-4.58,-1.01 -1.53,-2.49 -8.63,-2.35 -0.14,-0.21 -0.29,-0.8 -0.36,-0.68 -0.07,0.12 -0.27,-0.48 -0.36,-0.66 -0.08,-0.16 -0.22,-0.42 -0.32,-0.61 -0.28,-0.53 -0.63,-1.22 -0.8,-1.54l-1.7 -3.73c3.09,-5.48 8.26,-3.71 15.83,-3.79l37.57 0.11c1.43,0.11 2.89,0.39 4.33,0.32l3.79 -0.92c3.05,-0.78 7.34,-0.36 10.74,-0.36l-12.06 1.48c-0.18,5.86 0.9,2.64 13.57,5.91 2.13,0.55 6.33,1.09 8.46,0.8 3.33,-0.47 2.95,-1.68 4.13,-3.07 1.28,-1.51 -0.07,-0.88 1.55,-1.2 5.51,4.87 -4.51,7.83 -5.4,8.27 -0.79,0.39 -0.85,1.19 -3.95,2.02z"/>
   <path class="fil11" d="M107.05 133.24c-2.4,5.36 0.6,58.96 -0.86,70.79 -1.17,9.43 -0.94,14.43 8.27,15.37 8.07,0.81 15.03,0.39 23.66,-0.39 6.5,-0.58 16.19,0.06 23.12,0.06 10.94,0 36.53,-1.32 45.52,0.19l6.83 -0.52c-4.61,2.56 -53.66,1.23 -66.07,1.21l-9.74 0.7c0.76,3.79 0.47,1.92 2.92,3.61l-2.56 1.45c7.13,0.06 11.58,1.49 18.03,1.45l62.86 0 0.1 0.97c-17.62,1.31 -39.17,0.41 -57.16,0.32l-56.74 -0.38c-10.23,-1.88 -8.67,-13.41 -8.69,-18.98l-0.09 -71.53c0,-2.1 -0.27,-7.99 0.62,-9.94 1.5,-3.28 0.49,-1.23 1.81,-2.16 -2.11,6.94 0.47,-0.97 0.39,4.88 -2.83,0.81 -0.8,0.31 -2.02,1.45l0.01 67.91c0.64,0.57 0.5,0.57 1.32,1.25 1.32,1.11 -0.14,0.3 1.74,1.19 1.55,0.74 3.64,1.12 4.98,1.67 0.02,-2.35 -0.53,-66.76 0.24,-68.57 0.78,-1.83 0.11,-0.81 1.51,-2z"/>
   <path class="fil12" d="M68.75 332.29c-0.98,4.71 -0.2,0.25 -2.98,3.91 -1.04,1.37 -1.3,3.15 -2.2,4.35 -1.53,2.04 -0.94,0.16 -3.09,3.46 -0.96,1.48 -1.27,2.02 -2.28,3.29l-2.53 3.39c-1.47,2.25 -1.08,3.09 -2.19,5.05 -5.04,8.9 -0.55,4.16 -4.81,7.24 -0.41,9.82 -2.37,10.48 -2.78,13 -0.66,4.04 -0.34,11.8 -0.4,16.19 -10.69,-0.38 -7.93,-12.2 -7.93,-21.96l0.08 -59.97c0,-7.91 -1.61,-23.33 1.31,-29.24 0.58,3.54 -0.77,6 -0.67,9.71 0.08,3.41 0.33,6.65 0.29,10.14 -0.08,8.27 -2.03,20.21 1.98,25.26l4.65 5.49c0.14,0.16 0.57,0.62 0.73,0.76l10.99 7.74c0.05,0.06 0.93,1.84 1.04,2.02 1.68,-2.97 2.04,-3.52 6.14,-3.24 -1.21,-4.61 0.45,-5.97 4.65,-6.59z"/>
   <path class="fil12" d="M236.5 374.28c-1.35,2.63 -2.22,4.58 -3.56,7.47 -2.27,4.91 -1.56,4.27 -2.44,10.65l-32.93 -0.24c-0.01,-4 -0.06,-7.85 -0.17,-11.86 -0.05,-1.77 0.01,-3.75 -0.43,-5.39 -0.53,-1.97 -0.97,-0.47 -1.15,-4.75l3.07 0.13 0.49 3.59c-0.92,-3.68 0.42,-2.45 1.14,-2.97l1.34 2.7c0.02,-2.16 -0.95,-1.63 2.62,-2.03 3.01,-0.34 9.12,1.08 13.83,1.07 2.69,-0.01 16.32,0.19 18.19,1.63z"/>
   <path class="fil13" d="M426.86 131.23c-1.02,-4.79 0.67,-6.92 1.5,-10.98 0.67,-3.32 0.98,-8.05 1.4,-11.58 -1.29,-0.52 2.01,-1.93 -2.3,-0.09 0.07,-3.41 1.64,-4.41 1.89,-8.6 0.21,-3.34 0.22,-5.9 0.53,-9.38l-4.24 -3.1c-0.64,-0.16 -1.39,-0.19 -2.06,-0.23 -2.49,-0.14 -5.63,-0.01 -8.33,-0.01l-0.08 9.67c-2.07,-1.1 -0.71,0 -1.35,-2l-0.06 -8.4c2.64,-0.22 15.36,-0.64 17.3,1.18 1.85,2.93 0.56,2.66 -0.42,5.52 -1.43,4.18 -0.25,2.11 -0.07,6.31 0.2,-0.25 1.37,-0.58 1.63,-4.17 0.83,-11.77 3.16,-5.79 1.3,-13.98 3.1,-0.83 3.16,-1.63 3.95,-2.02 0.89,-0.44 10.91,-3.4 5.4,-8.27 -1.62,0.32 -0.27,-0.31 -1.55,1.2 -1.18,1.39 -0.8,2.6 -4.13,3.07 -2.13,0.29 -6.33,-0.25 -8.46,-0.8 -12.67,-3.27 -13.75,-0.05 -13.57,-5.91l12.06 -1.48c-3.4,0 -7.69,-0.42 -10.74,0.36l-3.79 0.92c-1.44,0.07 -2.9,-0.21 -4.33,-0.32l-37.57 -0.11c-7.57,0.08 -12.74,-1.69 -15.83,3.79l1.7 3.73c0.17,0.32 0.52,1.01 0.8,1.54 0.1,0.19 0.24,0.45 0.32,0.61 0.09,0.18 0.29,0.78 0.36,0.66 0.07,-0.12 0.22,0.47 0.36,0.68 7.1,-0.14 4.05,1.34 8.63,2.35 1.03,5.13 0.14,12.75 1.48,19.68 0.62,3.23 0.93,6.33 1.29,9.66 0.42,3.91 2.33,3.53 2.58,6.72 0.3,3.74 -1.19,-0.95 0.48,9.38l2.84 27.49 -2.65 0.33c0.69,-3.63 -1.06,-14.45 -1.83,-18.32 -1.25,-6.2 -1.43,-12.15 -2.23,-18.93 -0.69,-5.78 -1.86,-11.9 -2.61,-18.13 -0.6,-5.03 -0.97,-13.93 -2.71,-18.19 -5.52,-0.5 -9.69,-0.85 -9.91,-7.09 -0.23,-6.6 4.14,-7.54 10.41,-7.51l69.37 0c6.09,-0.05 11.14,-0.13 11.86,6.12 0.69,5.95 -3.53,7.98 -8.8,8.78 -0.37,4.97 -1.73,8.11 -2.42,11.72 -0.83,4.33 -1.35,9.07 -1.9,13.35l-3.61 21.96c-1,3.59 0.75,1.8 -1.89,2.82z"/>
   <path class="fil7" d="M130.16 364.43c1.35,0.79 1.95,0.73 3.5,1.62l5.29 3.37c0.11,0.1 0.27,0.24 0.38,0.34 0.1,0.1 0.26,0.24 0.35,0.35 2.56,2.74 3.6,8.87 0.5,12.27 -3.09,3.4 -3.63,2.04 -7.62,0.02 -7.35,-3.71 -7.88,-2.5 -11.43,-8.91 -4.37,-7.88 5.24,-11.29 9.03,-9.06z"/>
   <path class="fil14" d="M427.46 108.58l-0.77 4.88c-6.24,0.05 -6.99,-5.5 -10.06,-10.87 -1.54,-2.71 -0.92,-2.29 -1.46,-5.66l0.08 -9.67c2.7,0 5.84,-0.13 8.33,0.01 0.67,0.04 1.42,0.07 2.06,0.23l4.24 3.1c-0.31,3.48 -0.32,6.04 -0.53,9.38 -0.25,4.19 -1.82,5.19 -1.89,8.6z"/>
   <path class="fil7" d="M304.37 402c-5.72,5.47 -12.6,0.34 -15.97,-3.65 -2.7,-3.19 -4.45,-4.24 -2.21,-7.87 1.27,-2.05 3.16,-3.01 5.75,-2.81 2.14,0.16 4.38,1.5 6.11,2.47 4.71,2.65 6.52,5.04 6.32,11.86z"/>
   <path class="fil7" d="M426.95 404.01c-7.79,1.92 -11.62,-3.52 -17.3,-7.79 -0.23,-4.41 -0.56,-5.66 3.09,-7.33 3.13,-1.43 5.58,-0.88 8.17,0.57 5.23,2.92 7.93,6.47 6.04,14.55z"/>
   <path class="fil12" d="M353.2 392.09l-5.03 0.21c-2.45,-1.28 -1.52,-1.7 -2.08,-4.69 -0.72,-3.82 -4.87,-10.54 -5.62,-13.81 4.73,1.08 -0.16,3.17 7.24,2.75 4.82,-0.27 5.8,-0.12 9.93,0.34 1.15,-1.25 1.34,-2.51 2.86,-3.32l-4.49 12.26c-1.95,4.03 0.12,3 -2.81,6.26z"/>
  </g>
 </g>
</svg>
